<svg width="36" height="35" xmlns="http://www.w3.org/2000/svg"
     xml:space="preserve" overflow="hidden"><defs><clipPath id="clip0"><rect x="444" y="437" width="36" height="35"/></clipPath><clipPath
        id="clip1"><rect x="445" y="438" width="34" height="34"/></clipPath><clipPath id="clip2"><rect x="445" y="438" width="34" height="34"/></clipPath><clipPath
        id="clip3"><rect x="445" y="438" width="34" height="34"/></clipPath></defs>
    <g clip-path="url(#clip0)" transform="translate(-444 -437)"><g clip-path="url(#clip1)"><g clip-path="url(#clip2)"><g clip-path="url(#clip3)"><path d="M462 460.667C464.542 460.664 466.601 458.604 466.604 456.062L466.604 444.021C466.604 441.478 464.543 439.417 462 439.417 459.457 439.417 457.396 441.478 457.396 444.021L457.396 456.062C457.399 458.604 459.458 460.664 462 460.667ZM458.104 444.021C458.104 441.869 459.848 440.125 462 440.125 464.152 440.125 465.896 441.869 465.896 444.021L465.896 444.375 463.062 444.375 463.062 445.083 465.896 445.083 465.896 447.917 463.062 447.917 463.062 448.625 465.896 448.625 465.896 451.458 463.062 451.458 463.062 452.167 465.896 452.167 465.896 455 463.062 455 463.062 455.708 465.896 455.708 465.896 456.062C465.896 458.214 464.152 459.958 462 459.958 459.848 459.958 458.104 458.214 458.104 456.062Z" fill="#000000" fill-rule="nonzero" fill-opacity="1"/><path
            d="M462.354 469.167 462.354 463.482C466.315 463.292 469.431 460.028 469.438 456.062L469.438 452.521 468.729 452.521 468.729 456.062C468.729 459.779 465.716 462.792 462 462.792 458.284 462.792 455.271 459.779 455.271 456.062L455.271 452.521 454.562 452.521 454.562 456.062C454.569 460.028 457.685 463.292 461.646 463.482L461.646 469.167 453.5 469.167 453.5 469.875 470.5 469.875 470.5 469.167Z"
            fill="#000000" fill-rule="nonzero" fill-opacity="1"/></g></g></g></g></svg>
