<svg width="25" height="25" xmlns="http://www.w3.org/2000/svg"
     xml:space="preserve" overflow="hidden"><defs><clipPath id="clip0"><rect x="817" y="593" width="25" height="25"/></clipPath><clipPath
        id="clip1"><rect x="818" y="594" width="24" height="24"/></clipPath><clipPath id="clip2"><rect x="818" y="594" width="24" height="24"/></clipPath><clipPath
        id="clip3"><rect x="818" y="594" width="24" height="24"/></clipPath></defs>
    <g clip-path="url(#clip0)" transform="translate(-817 -593)"><g clip-path="url(#clip1)"><g clip-path="url(#clip2)"><g clip-path="url(#clip3)"><path d="M836.375 599.5 835.4 600.475C838.5 603.575 838.5 608.625 835.4 611.725L836.375 612.7C840.025 609.075 840.025 603.15 836.375 599.5Z" fill="#000000" fill-rule="nonzero" fill-opacity="1"/><path
            d="M834.4 601.45 833.425 602.425C835.45 604.45 835.45 607.725 833.425 609.775L834.4 610.75C836.975 608.175 836.975 604.025 834.4 601.45Z"
            fill="#000000" fill-rule="nonzero" fill-opacity="1"/><path
            d="M832.475 603.45 831.5 604.425C832.45 605.375 832.45 606.9 831.5 607.85L832.475 608.825C833.975 607.325 833.975 604.925 832.475 603.45Z"
            fill="#000000" fill-rule="nonzero" fill-opacity="1"/><path
            d="M818.875 602.65 818.875 609.35 823.725 609.35 830 614.5 830 597.5 823.725 602.65Z" fill="#000000"
            fill-rule="nonzero" fill-opacity="1"/></g></g></g></g></svg>
