<svg width="132" height="125" viewBox="0 0 132 125" fill="none" xmlns="http://www.w3.org/2000/svg">
<g style="mix-blend-mode:multiply">
<path d="M116.304 80.2608L117.941 78.4406C117.53 79.2572 117.152 80.0204 116.75 80.7263C116.328 81.4284 115.931 82.0847 115.549 82.7144C115.352 83.0273 115.166 83.3325 114.98 83.634C114.779 83.9278 114.583 84.2178 114.387 84.5002C113.994 85.0649 113.617 85.6144 113.239 86.1525C112.876 86.6981 112.479 87.2209 112.087 87.7513C111.695 88.2817 111.307 88.8197 110.915 89.3769C110.126 90.4873 109.258 91.6511 108.365 93.0057L108.478 92.6661C108.13 93.0172 108.135 93.4293 107.228 94.7114C106.777 95.3525 106.095 96.2111 104.963 97.3596C104.399 97.9358 103.756 98.596 102.952 99.3286C102.148 100.061 101.231 100.882 100.157 101.794L100.108 101.767C99.8582 102.049 99.9563 102.099 99.3189 102.584C99.8386 102.179 100.373 101.775 100.883 101.362C100.255 102.263 99.8043 103.11 98.8139 104.236C98.5442 104.442 98.3726 104.465 98.2745 104.446L95.7984 107.182L94.7049 107.827C94.0773 108.739 95.0825 108.75 92.5916 110.723C93.8469 110.166 91.7924 111.963 92.2827 111.829C92.1209 111.906 91.7875 112.108 91.5129 112.264C90.2871 113.592 87.9679 116.103 87.5952 116.843C87.5952 116.843 89.1054 115.729 90.8216 114.459C92.5377 113.195 94.499 111.795 95.4012 111.246C93.484 113.012 94.9844 111.765 95.4846 111.49L95.4944 111.303C96.676 110.265 96.9604 110.429 97.5782 109.925C97.5537 109.914 97.5096 109.914 97.4704 109.91L97.4409 110.002C97.338 110.025 97.338 109.975 97.3674 109.899C97.2939 109.876 97.2939 109.799 97.6077 109.506L97.5832 109.582C97.995 109.097 98.7943 108.319 99.1522 107.983L99.3973 108.113C99.7553 107.048 105.32 102.927 106.331 101.775C106.997 101.29 107.542 100.634 108.086 99.9277C108.635 99.2218 109.194 98.4739 109.885 97.7908C111.871 95.4899 111.204 96.8025 112.381 95.7303C113.739 94.3337 111.847 95.8867 112.308 95.2876C112.906 94.7572 113.465 94.2077 114.048 93.6659C113.278 94.7229 113.862 94.2306 114.107 94.0856C114.715 93.3148 115.647 92.3876 116.328 91.5214C117.025 90.6628 117.549 89.9111 117.466 89.5562C117.912 89.0487 118.25 88.6671 118.515 88.3657C118.785 88.068 118.991 87.8543 119.162 87.675C119.51 87.3201 119.726 87.1064 120.05 86.6447C119.746 86.9194 119.246 87.5071 119.133 87.4727C119.947 86.6905 119.354 87.0339 119.064 87.3697C119.226 87.0148 119.658 86.4272 120.202 85.7403C120.717 85.0382 121.339 84.2331 121.938 83.4508C122.55 82.6762 123.065 81.9054 123.423 81.3063C123.781 80.7072 123.977 80.276 123.869 80.1539L123.977 80.1883C123.708 79.7227 122.992 80.0967 123.271 79.0588C123.458 78.868 123.624 78.6695 123.801 78.4711L124.085 77.4294C124.551 76.815 124.517 77.1737 124.571 77.189C124.855 76.3571 125.345 75.4032 125.791 74.3881C126.032 73.8845 126.277 73.3693 126.522 72.858C126.645 72.6023 126.767 72.3467 126.885 72.0948C126.993 71.8391 127.091 71.5835 127.189 71.3354C126.537 71.9574 125.806 72.5451 125.105 73.1327C125.35 72.7359 125.644 72.2627 125.948 71.7666C126.223 71.263 126.502 70.7364 126.748 70.2441C127.233 69.2596 127.586 68.4239 127.424 68.2141L128.155 67.2639C128.626 66.4397 128.822 65.8597 128.944 65.4514C129.057 65.0393 129.052 64.7951 129.003 64.6081C128.91 64.2379 128.694 64.1235 128.964 63.4481C129.253 62.8871 129.489 62.3147 129.753 61.7424C129.65 62.3262 129.567 62.9138 129.435 63.4939C130.008 61.7691 130.263 61.0746 130.744 59.678C130.739 59.678 130.739 59.6627 130.734 59.6627C130.7 59.7581 130.67 59.8192 130.641 59.8306L130.66 59.5826C130.459 59.3498 130.366 58.4188 130.474 57.171C130.543 56.2857 130.523 55.492 130.494 54.5685C130.489 53.6451 130.499 52.5919 130.66 51.161L130.111 50.4779C130.165 49.7644 130.155 49.0546 130.175 48.3372L130.567 48.3067C130.69 49.3523 130.891 50.8595 130.984 52.4469C131.009 52.8438 131.033 53.2444 131.058 53.6451C131.067 54.0458 131.072 54.4464 131.082 54.8357C131.112 55.6179 131.067 56.3734 131.048 57.0489L131.224 57.1023C131.259 56.3009 131.264 55.4424 131.214 54.6525C131.2 54.2595 131.18 53.8817 131.165 53.5344C131.141 53.191 131.126 52.8781 131.126 52.611C131.156 52.3515 131.264 51.8898 131.391 51.6074C131.514 51.3251 131.675 51.2258 131.842 51.7066L131.381 50.726C131.131 48.0434 130.866 46.7002 130.641 45.3265C130.523 44.6397 130.425 43.9414 130.253 43.0713C130.101 42.1975 129.886 41.1481 129.538 39.7515L129.513 40.2629C129.033 39.1982 128.542 38.1527 128.714 37.7826C128.135 36.1379 127.405 34.4933 126.767 32.9746C126.081 31.4635 125.448 30.0898 124.987 28.9984L124.276 28.7351C124.061 28.4108 123.953 27.9376 123.766 27.5446C123.58 27.1516 123.35 26.831 122.953 26.8081L122.349 26.1785L121.712 25.568C121.045 24.7094 120.364 24.3393 119.716 23.2937C119.716 23.2899 119.711 23.2899 119.711 23.2899C119.672 23.225 119.633 23.1563 119.589 23.0915C119.579 23.0991 119.574 23.1106 119.569 23.1182C118.741 22.1795 118.662 22.2329 118.559 22.252C118.505 22.2634 118.451 22.2634 118.285 22.1261C118.123 21.9887 117.863 21.7139 117.353 21.195C116.882 20.4013 116.152 20.7943 115.102 19.8442C114.882 19.4244 114.671 18.9894 114.416 18.5811C113.94 18.1347 113.528 17.8027 113.131 17.5241C112.724 17.257 112.322 17.0471 111.891 16.822C111.454 16.5969 110.989 16.3527 110.395 16.0665C109.797 15.7803 109.135 15.3872 108.238 14.9293C106.693 13.8609 106.066 13.1283 107.542 13.3381C105.571 12.9794 106.581 13.2504 104.261 12.4528C104.046 12.1285 104.301 12.1972 104.894 12.2659C104.668 12.1285 104.477 12.0217 104.315 11.9339C104.149 11.8538 104.006 11.8003 103.889 11.7545C103.648 11.6668 103.492 11.6401 103.349 11.6248C103.06 11.5905 102.815 11.6057 102.06 11.3119C101.408 11.476 100.608 11.8003 100.103 11.663C100.285 11.7545 100.452 11.869 100.623 11.9759C99.7896 11.7698 98.8972 11.5981 98.0244 11.3386C97.5831 11.2165 97.1419 11.0677 96.6908 10.9265C96.2347 10.7968 95.7787 10.6479 95.3178 10.4839L95.4649 10.3274C94.7687 10.1862 94.0822 10.0374 93.386 9.90385L93.3369 9.652L90.3411 9.13686L90.7284 9.27805C90.5519 9.25134 90.2773 9.20936 89.939 9.15594C89.6007 9.11397 89.2035 9.06436 88.7867 9.01094C87.9532 8.90028 87.051 8.75146 86.3989 8.60646L86.4724 8.48053C84.6288 8.09895 82.8881 7.93105 81.0739 7.95776C80.1668 7.95394 79.2401 7.95776 78.2644 8.015C77.2935 8.06842 76.2687 8.06842 75.1704 8.11802L75.7441 7.83183C74.229 7.61433 75.3469 8.2554 73.5524 8.18289L73.4445 7.85855C71.8951 8.3279 71.4047 7.86999 70.2917 7.78223L70.8507 8.17145L68.8011 8.2325C66.5456 8.32027 67.335 7.84328 67.6292 7.57617L66.1583 8.08368L65.7856 7.74407C64.7559 8.30119 64.6481 7.80131 62.7554 8.33171C62.5593 8.21342 63.03 8.06079 62.3533 8.09895C61.3188 8.42329 60.3136 8.80106 59.3182 9.17502L61.157 8.58356L61.0785 9.16739C60.1518 9.56042 59.485 9.67108 58.872 9.73595C58.2591 9.80082 57.7051 9.8199 57.0382 10.0603C57.3373 9.93819 57.6364 9.80464 57.9453 9.69016C55.7144 10.3274 55.5133 10.1328 54.1796 10.3083C54.6209 10.3121 55.2829 10.3236 54.3905 10.6022C53.7383 10.8044 53.9541 10.5106 53.2971 10.6212C53.2971 10.8158 52.9146 11.0677 52.3458 11.2966C51.7771 11.5294 51.0121 11.724 50.2668 11.8767C50.2619 11.8232 50.2669 11.766 50.3453 11.7049C50.007 11.8728 49.8648 12.0217 49.193 12.1361L49.3745 11.6363L48.3399 12.3803C47.472 12.533 46.4374 13.1702 46.408 12.8917C46.5453 12.8115 46.6875 12.7429 46.8248 12.6665C45.7951 12.9871 44.7997 13.361 43.7848 13.7044L42.2697 14.2349C41.7695 14.418 41.2841 14.6279 40.7889 14.8225L40.5094 14.5668C40.2103 15.2117 37.1997 15.765 37.7636 16.1848C36.4887 16.4328 33.7184 18.3903 33.9047 17.5547C32.9682 18.0011 32.2131 18.4857 31.4874 18.9284C30.7716 19.3863 30.0851 19.806 29.4183 20.283C28.7514 20.76 28.0601 21.2484 27.2559 21.7597C26.8588 22.0192 26.4224 22.2711 25.9664 22.5534C25.5202 22.8434 25.0397 23.1449 24.5101 23.4616C23.5785 23.7554 22.1271 24.5797 20.7346 25.6748C20.0237 26.209 19.2833 26.7776 18.587 27.3385C17.9202 27.9262 17.2778 28.4947 16.6895 28.987C16.4247 29.2426 16.1648 29.4907 15.9147 29.7387C15.7873 29.8608 15.6647 29.9829 15.5372 30.1012C15.4244 30.2271 15.3067 30.3531 15.194 30.4752C14.7429 30.9712 14.3114 31.4482 13.8897 31.9138C13.4729 32.3831 13.0512 32.8296 12.6639 33.2875C12.2961 33.7568 11.9284 34.2185 11.5656 34.6841C11.2027 35.1458 10.835 35.6113 10.4672 36.0807C10.0897 36.5462 9.78569 37.0575 9.42775 37.5612C8.74129 38.5801 7.95678 39.6294 7.28013 40.8658C6.61329 41.503 5.97096 42.2738 5.45122 43.1438C4.95599 44.0291 4.5098 44.9869 4.07341 45.9523C3.83805 46.4293 3.70076 46.9406 3.51934 47.4291C3.34773 47.9213 3.17121 48.4097 2.98489 48.8829C2.89173 49.1195 2.79366 49.3523 2.7005 49.585C2.59753 49.814 2.50927 50.0429 2.43082 50.2719C2.26902 50.726 2.0876 51.161 1.88656 51.5731L1.96992 52.569C1.80811 52.8361 1.66101 53.1261 1.52372 53.4352C1.38643 53.7443 1.29817 54.0801 1.20011 54.4274C1.10695 54.7746 1.01379 55.1409 0.935333 55.5149C0.876495 55.8926 0.812752 56.278 0.74901 56.6711C0.606816 57.4571 0.562687 58.2814 0.430299 59.1018C0.346944 59.926 0.199847 60.7541 0.0380401 61.5668C0.194944 62.372 0.239073 62.7879 0.253783 62.9711C0.273396 62.8223 0.351848 62.5971 0.59701 62.5284C0.410687 63.4557 0.719591 65.3178 0.239073 65.2034L0.145911 64.9706C-0.104154 64.9095 0.0135239 65.6155 0.155718 66.4664C0.307718 67.3135 0.533268 68.298 0.40088 68.8361C0.533268 68.63 0.690171 68.4239 0.832365 68.2217C0.871591 68.8055 0.979463 69.3855 1.05301 69.9656L0.866688 69.5115C2.15624 73.209 3.01431 75.8496 4.00476 78.4406C4.25973 79.0855 4.5147 79.7265 4.82851 80.3676C4.98051 80.6881 5.13741 81.0125 5.29922 81.3368C5.48064 81.6574 5.66206 81.9817 5.84838 82.3137C6.60348 83.634 7.60865 84.9924 8.96684 86.4386C7.84891 85.851 10.1485 87.5262 9.67781 87.8543C10.2711 89.7127 12.1981 90.5903 13.5367 91.6282C13.5612 91.613 13.6053 91.6091 13.7083 91.6549C14.3506 92.3532 15.0763 93.0019 15.7676 93.6735C14.8262 93.2881 15.3362 93.5629 15.8755 93.83C16.4296 94.0894 17.0033 94.3489 16.1403 94.0093C17.4789 95.3372 19.1264 96.6423 20.97 97.9015C22.8234 99.1531 24.922 100.309 27.1628 101.359C29.3938 102.404 31.8061 103.316 34.2529 104.041C35.4787 104.4 36.6849 104.797 37.9254 105.068C39.1561 105.369 40.3672 105.693 41.593 105.911L41.2106 105.682C42.4462 105.907 43.8338 106.163 45.1675 106.289C46.4963 106.441 47.7368 106.636 48.6733 106.812C49.6098 107.006 50.6689 107.002 51.576 106.918C52.4831 106.815 53.2382 106.67 53.606 106.67C54.1257 106.621 54.6356 106.617 55.0867 106.644C55.5378 106.651 55.9399 106.689 56.2488 106.735C56.8666 106.827 57.1216 106.953 56.6754 106.945C57.7884 106.895 58.8622 106.747 60.0243 106.556C61.1913 106.377 62.4612 106.266 63.9861 106.243C64.2607 106.35 64.9128 106.331 65.7366 106.251C66.5603 106.174 67.5459 105.98 68.502 105.816C68.9776 105.732 69.4483 105.652 69.8847 105.575C70.3211 105.491 70.7232 105.415 71.0664 105.365C71.7578 105.258 72.2285 105.239 72.2873 105.381L72.3069 105.327C76.2344 105.155 79.5882 103.828 83.6923 103.278C83.6923 103.278 83.6334 103.335 83.5108 103.404C84.771 102.835 85.987 102.202 87.2128 101.607C88.4337 100.996 89.6252 100.363 90.8216 99.7446L87.7865 98.4701C86.5557 98.5197 85.325 98.5273 84.0992 98.5464C82.8783 98.5731 81.6574 98.5578 80.4414 98.5464C74.4055 99.9926 68.2617 101.034 62.0886 101.588C57.1314 101.702 52.2232 101.424 47.5406 100.66L45.3881 100.405L43.2748 100.038L42.2157 99.8552L41.1811 99.6148L39.112 99.1378L37.1016 98.5464L36.0916 98.2526L35.1207 97.9129L34.1499 97.5695L33.2036 97.1879C32.8898 97.0582 32.5662 96.9399 32.2572 96.8025L31.3354 96.3828C26.4175 94.1391 22.083 91.0597 18.5723 87.4575C17.9447 87.0148 17.2778 86.5875 16.6649 86.1181C16.2923 85.4999 15.8706 84.8818 15.4685 84.2369C15.0371 83.6035 14.635 82.9395 14.1937 82.2755C13.3552 80.9324 12.4678 79.5434 11.7176 78.0895L11.4234 77.5477L11.1586 76.9982C10.9821 76.6281 10.7958 76.2655 10.6339 75.8916C10.325 75.1437 9.99652 74.4034 9.75627 73.6479C9.22672 72.1482 8.9031 70.6371 8.77562 69.1871L8.27058 69.1261C7.92245 67.5005 8.28039 67.5768 8.3 67.1685C7.72142 63.3908 7.79987 59.5254 8.58929 55.7744C9.45227 52.0157 10.8889 48.2991 12.9189 44.8305C14.9096 41.3428 17.5573 38.126 20.5091 35.2221C20.8768 34.8596 21.2446 34.4933 21.6074 34.1308C21.9948 33.7835 22.3968 33.4439 22.7891 33.1043C23.1862 32.7647 23.5785 32.4251 23.9708 32.0893L24.5592 31.5856L25.1868 31.1124C26.0252 30.4866 26.8539 29.8646 27.6776 29.2465C28.5553 28.6741 29.4232 28.1055 30.2861 27.5446C31.0118 27.1668 32.4387 26.3731 33.7822 25.5642C34.4441 25.152 35.1502 24.7972 35.7533 24.4995C36.3564 24.2057 36.8614 23.9768 37.185 23.8814C41.6371 20.9279 47.2121 18.646 52.694 17.0815L52.5076 17.1845C53.3412 16.8792 54.2042 16.635 55.0622 16.3832C55.1848 16.3832 55.2191 16.4213 55.1456 16.471C55.8418 16.1924 56.6656 15.9215 57.5825 15.7154C58.4994 15.5055 59.4702 15.2575 60.4999 15.1125C62.5397 14.7614 64.6971 14.5478 66.5701 14.3684L66.3593 14.4333C71.7921 13.7731 77.1955 13.5442 82.4615 13.8914C87.7129 14.273 92.8319 15.1888 97.5586 16.78C99.8877 17.6195 102.177 18.5468 104.286 19.6915C106.399 20.8287 108.37 22.1337 110.17 23.5837C113.779 26.4838 116.691 29.9791 118.799 33.8331C120.525 37.4926 122.193 41.5145 123.193 45.8531C124.198 50.1803 124.517 54.8166 123.663 59.3078C123.575 59.5101 123.472 59.9718 123.355 60.6281C123.203 61.2806 123.07 62.1316 122.835 63.097C122.732 63.5816 122.619 64.1006 122.472 64.6348C122.335 65.1728 122.197 65.7338 122.021 66.3061C121.938 66.5923 121.854 66.8823 121.771 67.1762C121.683 67.47 121.57 67.7676 121.472 68.0691C121.266 68.672 121.06 69.2787 120.854 69.8892C120.668 70.5036 120.413 71.1027 120.177 71.698C119.942 72.2932 119.707 72.8809 119.481 73.4533C119.01 74.5942 118.486 75.655 118.074 76.6052C117.873 77.0821 117.637 77.5133 117.441 77.914C117.24 78.3147 117.064 78.6734 116.907 78.9863C116.588 79.6159 116.377 80.0623 116.304 80.2608Z" fill="#CC0000" fill-opacity="0.7"/>
</g>
</svg>
