<svg width="32" height="32" viewBox="0 0 32 32" fill="none" xmlns="http://www.w3.org/2000/svg">
<path d="M8.74414 26.5312L8.74414 24.3315" stroke="#111111" stroke-width="1.6" stroke-linecap="round"/>
<path d="M14.0098 26.5312L14.0098 24.3315" stroke="#111111" stroke-width="1.6" stroke-linecap="round"/>
<path d="M19.2441 26.5312L19.2441 24.3315" stroke="#111111" stroke-width="1.6" stroke-linecap="round"/>
<path d="M24.502 26.5312L24.502 24.3315" stroke="#111111" stroke-width="1.6" stroke-linecap="round"/>
<mask id="path-5-inside-1_375_46584" fill="white">
<path fill-rule="evenodd" clip-rule="evenodd" d="M32 20.6621C32 20.6631 32 20.6642 32 20.6652V25.9947C32 27.0993 31.1046 27.9947 30 27.9947H4C2.89543 27.9947 2 27.0993 2 25.9947V20.6652C2 20.6642 2 20.6631 2 20.6621C2.00042 18.7373 2.38839 16.8314 3.14181 15.0531C3.89563 13.2738 5.00052 11.6571 6.3934 10.2953C7.78628 8.93355 9.43986 7.85332 11.2597 7.11632C13.0796 6.37933 15.0302 6 17 6C18.9698 6 20.9204 6.37933 22.7403 7.11632C24.5601 7.85332 26.2137 8.93355 27.6066 10.2953C28.9995 11.6571 30.1044 13.2738 30.8582 15.0531C31.6116 16.8314 31.9996 18.7373 32 20.6621Z"/>
</mask>
<path d="M32 20.6621H34V20.6617L32 20.6621ZM2 20.6621L1.19209e-07 20.6617L2 20.6621ZM3.14181 15.0531L1.30026 14.2729H1.30026L3.14181 15.0531ZM6.3934 10.2953L7.79156 11.7254L7.79156 11.7254L6.3934 10.2953ZM11.2597 7.11632L10.509 5.26256V5.26256L11.2597 7.11632ZM22.7403 7.11632L23.491 5.26256V5.26256L22.7403 7.11632ZM30.8582 15.0531L29.0166 15.8333V15.8333L30.8582 15.0531ZM34 20.6652C34 20.6652 34 20.6652 34 20.6652C34 20.6652 34 20.6652 34 20.6652C34 20.6652 34 20.6652 34 20.6652C34 20.6652 34 20.6652 34 20.6652C34 20.6652 34 20.6652 34 20.6652C34 20.6652 34 20.6652 34 20.6652C34 20.6652 34 20.6652 34 20.6652C34 20.6652 34 20.6652 34 20.6652C34 20.6652 34 20.6652 34 20.6652C34 20.6652 34 20.6652 34 20.6652C34 20.6652 34 20.6652 34 20.6652C34 20.6652 34 20.6652 34 20.6652C34 20.6652 34 20.6652 34 20.6652C34 20.6651 34 20.6651 34 20.6651C34 20.6651 34 20.6651 34 20.6651C34 20.6651 34 20.6651 34 20.6651C34 20.6651 34 20.6651 34 20.6651C34 20.6651 34 20.6651 34 20.6651C34 20.6651 34 20.6651 34 20.6651C34 20.6651 34 20.6651 34 20.6651C34 20.6651 34 20.6651 34 20.6651C34 20.6651 34 20.6651 34 20.6651C34 20.6651 34 20.6651 34 20.6651C34 20.6651 34 20.6651 34 20.6651C34 20.6651 34 20.6651 34 20.6651C34 20.6651 34 20.6651 34 20.6651C34 20.6651 34 20.6651 34 20.6651C34 20.6651 34 20.6651 34 20.6651C34 20.6651 34 20.6651 34 20.6651C34 20.6651 34 20.665 34 20.665C34 20.665 34 20.665 34 20.665C34 20.665 34 20.665 34 20.665C34 20.665 34 20.665 34 20.665C34 20.665 34 20.665 34 20.665C34 20.665 34 20.665 34 20.665C34 20.665 34 20.665 34 20.665C34 20.665 34 20.665 34 20.665C34 20.665 34 20.665 34 20.665C34 20.665 34 20.665 34 20.665C34 20.665 34 20.665 34 20.665C34 20.665 34 20.665 34 20.665C34 20.665 34 20.665 34 20.665C34 20.665 34 20.665 34 20.665C34 20.665 34 20.665 34 20.665C34 20.665 34 20.665 34 20.665C34 20.665 34 20.665 34 20.6649C34 20.6649 34 20.6649 34 20.6649C34 20.6649 34 20.6649 34 20.6649C34 20.6649 34 20.6649 34 20.6649C34 20.6649 34 20.6649 34 20.6649C34 20.6649 34 20.6649 34 20.6649C34 20.6649 34 20.6649 34 20.6649C34 20.6649 34 20.6649 34 20.6649C34 20.6649 34 20.6649 34 20.6649C34 20.6649 34 20.6649 34 20.6649C34 20.6649 34 20.6649 34 20.6649C34 20.6649 34 20.6649 34 20.6649C34 20.6649 34 20.6649 34 20.6649C34 20.6649 34 20.6649 34 20.6649C34 20.6649 34 20.6649 34 20.6649C34 20.6649 34 20.6649 34 20.6649C34 20.6649 34 20.6649 34 20.6649C34 20.6649 34 20.6648 34 20.6648C34 20.6648 34 20.6648 34 20.6648C34 20.6648 34 20.6648 34 20.6648C34 20.6648 34 20.6648 34 20.6648C34 20.6648 34 20.6648 34 20.6648C34 20.6648 34 20.6648 34 20.6648C34 20.6648 34 20.6648 34 20.6648C34 20.6648 34 20.6648 34 20.6648C34 20.6648 34 20.6648 34 20.6648C34 20.6648 34 20.6648 34 20.6648C34 20.6648 34 20.6648 34 20.6648C34 20.6648 34 20.6648 34 20.6648C34 20.6648 34 20.6648 34 20.6648C34 20.6648 34 20.6648 34 20.6648C34 20.6648 34 20.6648 34 20.6648C34 20.6648 34 20.6648 34 20.6648C34 20.6648 34 20.6648 34 20.6647C34 20.6647 34 20.6647 34 20.6647C34 20.6647 34 20.6647 34 20.6647C34 20.6647 34 20.6647 34 20.6647C34 20.6647 34 20.6647 34 20.6647C34 20.6647 34 20.6647 34 20.6647C34 20.6647 34 20.6647 34 20.6647C34 20.6647 34 20.6647 34 20.6647C34 20.6647 34 20.6647 34 20.6647C34 20.6647 34 20.6647 34 20.6647C34 20.6647 34 20.6647 34 20.6647C34 20.6647 34 20.6647 34 20.6647C34 20.6647 34 20.6647 34 20.6647C34 20.6647 34 20.6647 34 20.6647C34 20.6647 34 20.6647 34 20.6647C34 20.6647 34 20.6647 34 20.6647C34 20.6647 34 20.6647 34 20.6647C34 20.6646 34 20.6646 34 20.6646C34 20.6646 34 20.6646 34 20.6646C34 20.6646 34 20.6646 34 20.6646C34 20.6646 34 20.6646 34 20.6646C34 20.6646 34 20.6646 34 20.6646C34 20.6646 34 20.6646 34 20.6646C34 20.6646 34 20.6646 34 20.6646C34 20.6646 34 20.6646 34 20.6646C34 20.6646 34 20.6646 34 20.6646C34 20.6646 34 20.6646 34 20.6646C34 20.6646 34 20.6646 34 20.6646C34 20.6646 34 20.6646 34 20.6646C34 20.6646 34 20.6646 34 20.6646C34 20.6646 34 20.6646 34 20.6646C34 20.6646 34 20.6646 34 20.6646C34 20.6646 34 20.6646 34 20.6646C34 20.6646 34 20.6645 34 20.6645C34 20.6645 34 20.6645 34 20.6645C34 20.6645 34 20.6645 34 20.6645C34 20.6645 34 20.6645 34 20.6645C34 20.6645 34 20.6645 34 20.6645C34 20.6645 34 20.6645 34 20.6645C34 20.6645 34 20.6645 34 20.6645C34 20.6645 34 20.6645 34 20.6645C34 20.6645 34 20.6645 34 20.6645C34 20.6645 34 20.6645 34 20.6645C34 20.6645 34 20.6645 34 20.6645C34 20.6645 34 20.6645 34 20.6645C34 20.6645 34 20.6645 34 20.6645C34 20.6645 34 20.6645 34 20.6645C34 20.6645 34 20.6645 34 20.6645C34 20.6645 34 20.6645 34 20.6645C34 20.6645 34 20.6645 34 20.6644C34 20.6644 34 20.6644 34 20.6644C34 20.6644 34 20.6644 34 20.6644C34 20.6644 34 20.6644 34 20.6644C34 20.6644 34 20.6644 34 20.6644C34 20.6644 34 20.6644 34 20.6644C34 20.6644 34 20.6644 34 20.6644C34 20.6644 34 20.6644 34 20.6644C34 20.6644 34 20.6644 34 20.6644C34 20.6644 34 20.6644 34 20.6644C34 20.6644 34 20.6644 34 20.6644C34 20.6644 34 20.6644 34 20.6644C34 20.6644 34 20.6644 34 20.6644C34 20.6644 34 20.6644 34 20.6644C34 20.6644 34 20.6644 34 20.6644C34 20.6644 34 20.6644 34 20.6644C34 20.6644 34 20.6644 34 20.6644C34 20.6644 34 20.6643 34 20.6643C34 20.6643 34 20.6643 34 20.6643C34 20.6643 34 20.6643 34 20.6643C34 20.6643 34 20.6643 34 20.6643C34 20.6643 34 20.6643 34 20.6643C34 20.6643 34 20.6643 34 20.6643C34 20.6643 34 20.6643 34 20.6643C34 20.6643 34 20.6643 34 20.6643C34 20.6643 34 20.6643 34 20.6643C34 20.6643 34 20.6643 34 20.6643C34 20.6643 34 20.6643 34 20.6643C34 20.6643 34 20.6643 34 20.6643C34 20.6643 34 20.6643 34 20.6643C34 20.6643 34 20.6643 34 20.6643C34 20.6643 34 20.6643 34 20.6643C34 20.6643 34 20.6643 34 20.6643C34 20.6643 34 20.6643 34 20.6642C34 20.6642 34 20.6642 34 20.6642C34 20.6642 34 20.6642 34 20.6642C34 20.6642 34 20.6642 34 20.6642C34 20.6642 34 20.6642 34 20.6642C34 20.6642 34 20.6642 34 20.6642C34 20.6642 34 20.6642 34 20.6642C34 20.6642 34 20.6642 34 20.6642C34 20.6642 34 20.6642 34 20.6642C34 20.6642 34 20.6642 34 20.6642C34 20.6642 34 20.6642 34 20.6642C34 20.6642 34 20.6642 34 20.6642C34 20.6642 34 20.6642 34 20.6642C34 20.6642 34 20.6642 34 20.6642C34 20.6642 34 20.6642 34 20.6642C34 20.6642 34 20.6642 34 20.6642C34 20.6642 34 20.6642 34 20.6642C34 20.6641 34 20.6641 34 20.6641C34 20.6641 34 20.6641 34 20.6641C34 20.6641 34 20.6641 34 20.6641C34 20.6641 34 20.6641 34 20.6641C34 20.6641 34 20.6641 34 20.6641C34 20.6641 34 20.6641 34 20.6641C34 20.6641 34 20.6641 34 20.6641C34 20.6641 34 20.6641 34 20.6641C34 20.6641 34 20.6641 34 20.6641C34 20.6641 34 20.6641 34 20.6641C34 20.6641 34 20.6641 34 20.6641C34 20.6641 34 20.6641 34 20.6641C34 20.6641 34 20.6641 34 20.6641C34 20.6641 34 20.6641 34 20.6641C34 20.6641 34 20.6641 34 20.6641C34 20.6641 34 20.6641 34 20.6641C34 20.6641 34 20.664 34 20.664C34 20.664 34 20.664 34 20.664C34 20.664 34 20.664 34 20.664C34 20.664 34 20.664 34 20.664C34 20.664 34 20.664 34 20.664C34 20.664 34 20.664 34 20.664C34 20.664 34 20.664 34 20.664C34 20.664 34 20.664 34 20.664C34 20.664 34 20.664 34 20.664C34 20.664 34 20.664 34 20.664C34 20.664 34 20.664 34 20.664C34 20.664 34 20.664 34 20.664C34 20.664 34 20.664 34 20.664C34 20.664 34 20.664 34 20.664C34 20.664 34 20.664 34 20.664C34 20.664 34 20.664 34 20.664C34 20.664 34 20.664 34 20.6639C34 20.6639 34 20.6639 34 20.6639C34 20.6639 34 20.6639 34 20.6639C34 20.6639 34 20.6639 34 20.6639C34 20.6639 34 20.6639 34 20.6639C34 20.6639 34 20.6639 34 20.6639C34 20.6639 34 20.6639 34 20.6639C34 20.6639 34 20.6639 34 20.6639C34 20.6639 34 20.6639 34 20.6639C34 20.6639 34 20.6639 34 20.6639C34 20.6639 34 20.6639 34 20.6639C34 20.6639 34 20.6639 34 20.6639C34 20.6639 34 20.6639 34 20.6639C34 20.6639 34 20.6639 34 20.6639C34 20.6639 34 20.6639 34 20.6639C34 20.6639 34 20.6639 34 20.6639C34 20.6639 34 20.6639 34 20.6639C34 20.6639 34 20.6638 34 20.6638C34 20.6638 34 20.6638 34 20.6638C34 20.6638 34 20.6638 34 20.6638C34 20.6638 34 20.6638 34 20.6638C34 20.6638 34 20.6638 34 20.6638C34 20.6638 34 20.6638 34 20.6638C34 20.6638 34 20.6638 34 20.6638C34 20.6638 34 20.6638 34 20.6638C34 20.6638 34 20.6638 34 20.6638C34 20.6638 34 20.6638 34 20.6638C34 20.6638 34 20.6638 34 20.6638C34 20.6638 34 20.6638 34 20.6638C34 20.6638 34 20.6638 34 20.6638C34 20.6638 34 20.6638 34 20.6638C34 20.6638 34 20.6638 34 20.6638C34 20.6638 34 20.6638 34 20.6638C34 20.6638 34 20.6638 34 20.6637C34 20.6637 34 20.6637 34 20.6637C34 20.6637 34 20.6637 34 20.6637C34 20.6637 34 20.6637 34 20.6637C34 20.6637 34 20.6637 34 20.6637C34 20.6637 34 20.6637 34 20.6637C34 20.6637 34 20.6637 34 20.6637C34 20.6637 34 20.6637 34 20.6637C34 20.6637 34 20.6637 34 20.6637C34 20.6637 34 20.6637 34 20.6637C34 20.6637 34 20.6637 34 20.6637C34 20.6637 34 20.6637 34 20.6637C34 20.6637 34 20.6637 34 20.6637C34 20.6637 34 20.6637 34 20.6637C34 20.6637 34 20.6637 34 20.6637C34 20.6637 34 20.6637 34 20.6637C34 20.6637 34 20.6637 34 20.6637C34 20.6636 34 20.6636 34 20.6636C34 20.6636 34 20.6636 34 20.6636C34 20.6636 34 20.6636 34 20.6636C34 20.6636 34 20.6636 34 20.6636C34 20.6636 34 20.6636 34 20.6636C34 20.6636 34 20.6636 34 20.6636C34 20.6636 34 20.6636 34 20.6636C34 20.6636 34 20.6636 34 20.6636C34 20.6636 34 20.6636 34 20.6636C34 20.6636 34 20.6636 34 20.6636C34 20.6636 34 20.6636 34 20.6636C34 20.6636 34 20.6636 34 20.6636C34 20.6636 34 20.6636 34 20.6636C34 20.6636 34 20.6636 34 20.6636C34 20.6636 34 20.6636 34 20.6636C34 20.6636 34 20.6636 34 20.6636C34 20.6636 34 20.6635 34 20.6635C34 20.6635 34 20.6635 34 20.6635C34 20.6635 34 20.6635 34 20.6635C34 20.6635 34 20.6635 34 20.6635C34 20.6635 34 20.6635 34 20.6635C34 20.6635 34 20.6635 34 20.6635C34 20.6635 34 20.6635 34 20.6635C34 20.6635 34 20.6635 34 20.6635C34 20.6635 34 20.6635 34 20.6635C34 20.6635 34 20.6635 34 20.6635C34 20.6635 34 20.6635 34 20.6635C34 20.6635 34 20.6635 34 20.6635C34 20.6635 34 20.6635 34 20.6635C34 20.6635 34 20.6635 34 20.6635C34 20.6635 34 20.6635 34 20.6635C34 20.6635 34 20.6635 34 20.6635C34 20.6635 34 20.6635 34 20.6635C34 20.6634 34 20.6634 34 20.6634C34 20.6634 34 20.6634 34 20.6634C34 20.6634 34 20.6634 34 20.6634C34 20.6634 34 20.6634 34 20.6634C34 20.6634 34 20.6634 34 20.6634C34 20.6634 34 20.6634 34 20.6634C34 20.6634 34 20.6634 34 20.6634C34 20.6634 34 20.6634 34 20.6634C34 20.6634 34 20.6634 34 20.6634C34 20.6634 34 20.6634 34 20.6634C34 20.6634 34 20.6634 34 20.6634C34 20.6634 34 20.6634 34 20.6634C34 20.6634 34 20.6634 34 20.6634C34 20.6634 34 20.6634 34 20.6634C34 20.6634 34 20.6634 34 20.6634C34 20.6634 34 20.6634 34 20.6634C34 20.6634 34 20.6633 34 20.6633C34 20.6633 34 20.6633 34 20.6633C34 20.6633 34 20.6633 34 20.6633C34 20.6633 34 20.6633 34 20.6633C34 20.6633 34 20.6633 34 20.6633C34 20.6633 34 20.6633 34 20.6633C34 20.6633 34 20.6633 34 20.6633C34 20.6633 34 20.6633 34 20.6633C34 20.6633 34 20.6633 34 20.6633C34 20.6633 34 20.6633 34 20.6633C34 20.6633 34 20.6633 34 20.6633C34 20.6633 34 20.6633 34 20.6633C34 20.6633 34 20.6633 34 20.6633C34 20.6633 34 20.6633 34 20.6633C34 20.6633 34 20.6633 34 20.6633C34 20.6633 34 20.6633 34 20.6633C34 20.6633 34 20.6633 34 20.6632C34 20.6632 34 20.6632 34 20.6632C34 20.6632 34 20.6632 34 20.6632C34 20.6632 34 20.6632 34 20.6632C34 20.6632 34 20.6632 34 20.6632C34 20.6632 34 20.6632 34 20.6632C34 20.6632 34 20.6632 34 20.6632C34 20.6632 34 20.6632 34 20.6632C34 20.6632 34 20.6632 34 20.6632C34 20.6632 34 20.6632 34 20.6632C34 20.6632 34 20.6632 34 20.6632C34 20.6632 34 20.6632 34 20.6632C34 20.6632 34 20.6632 34 20.6632C34 20.6632 34 20.6632 34 20.6632C34 20.6632 34 20.6632 34 20.6632C34 20.6632 34 20.6632 34 20.6632C34 20.6632 34 20.6632 34 20.6632C34 20.6631 34 20.6631 34 20.6631C34 20.6631 34 20.6631 34 20.6631C34 20.6631 34 20.6631 34 20.6631C34 20.6631 34 20.6631 34 20.6631C34 20.6631 34 20.6631 34 20.6631C34 20.6631 34 20.6631 34 20.6631C34 20.6631 34 20.6631 34 20.6631C34 20.6631 34 20.6631 34 20.6631C34 20.6631 34 20.6631 34 20.6631C34 20.6631 34 20.6631 34 20.6631C34 20.6631 34 20.6631 34 20.6631C34 20.6631 34 20.6631 34 20.6631C34 20.6631 34 20.6631 34 20.6631C34 20.6631 34 20.6631 34 20.6631C34 20.6631 34 20.6631 34 20.6631C34 20.6631 34 20.6631 34 20.6631C34 20.6631 34 20.663 34 20.663C34 20.663 34 20.663 34 20.663C34 20.663 34 20.663 34 20.663C34 20.663 34 20.663 34 20.663C34 20.663 34 20.663 34 20.663C34 20.663 34 20.663 34 20.663C34 20.663 34 20.663 34 20.663C34 20.663 34 20.663 34 20.663C34 20.663 34 20.663 34 20.663C34 20.663 34 20.663 34 20.663C34 20.663 34 20.663 34 20.663C34 20.663 34 20.663 34 20.663C34 20.663 34 20.663 34 20.663C34 20.663 34 20.663 34 20.663C34 20.663 34 20.663 34 20.663C34 20.663 34 20.663 34 20.663C34 20.663 34 20.663 34 20.663C34 20.6629 34 20.6629 34 20.6629C34 20.6629 34 20.6629 34 20.6629C34 20.6629 34 20.6629 34 20.6629C34 20.6629 34 20.6629 34 20.6629C34 20.6629 34 20.6629 34 20.6629C34 20.6629 34 20.6629 34 20.6629C34 20.6629 34 20.6629 34 20.6629C34 20.6629 34 20.6629 34 20.6629C34 20.6629 34 20.6629 34 20.6629C34 20.6629 34 20.6629 34 20.6629C34 20.6629 34 20.6629 34 20.6629C34 20.6629 34 20.6629 34 20.6629C34 20.6629 34 20.6629 34 20.6629C34 20.6629 34 20.6629 34 20.6629C34 20.6629 34 20.6629 34 20.6629C34 20.6629 34 20.6629 34 20.6629C34 20.6629 34 20.6628 34 20.6628C34 20.6628 34 20.6628 34 20.6628C34 20.6628 34 20.6628 34 20.6628C34 20.6628 34 20.6628 34 20.6628C34 20.6628 34 20.6628 34 20.6628C34 20.6628 34 20.6628 34 20.6628C34 20.6628 34 20.6628 34 20.6628C34 20.6628 34 20.6628 34 20.6628C34 20.6628 34 20.6628 34 20.6628C34 20.6628 34 20.6628 34 20.6628C34 20.6628 34 20.6628 34 20.6628C34 20.6628 34 20.6628 34 20.6628C34 20.6628 34 20.6628 34 20.6628C34 20.6628 34 20.6628 34 20.6628C34 20.6628 34 20.6628 34 20.6628C34 20.6628 34 20.6628 34 20.6628C34 20.6628 34 20.6628 34 20.6627C34 20.6627 34 20.6627 34 20.6627C34 20.6627 34 20.6627 34 20.6627C34 20.6627 34 20.6627 34 20.6627C34 20.6627 34 20.6627 34 20.6627C34 20.6627 34 20.6627 34 20.6627C34 20.6627 34 20.6627 34 20.6627C34 20.6627 34 20.6627 34 20.6627C34 20.6627 34 20.6627 34 20.6627C34 20.6627 34 20.6627 34 20.6627C34 20.6627 34 20.6627 34 20.6627C34 20.6627 34 20.6627 34 20.6627C34 20.6627 34 20.6627 34 20.6627C34 20.6627 34 20.6627 34 20.6627C34 20.6627 34 20.6627 34 20.6627C34 20.6627 34 20.6627 34 20.6627C34 20.6627 34 20.6627 34 20.6627C34 20.6627 34 20.6626 34 20.6626C34 20.6626 34 20.6626 34 20.6626C34 20.6626 34 20.6626 34 20.6626C34 20.6626 34 20.6626 34 20.6626C34 20.6626 34 20.6626 34 20.6626C34 20.6626 34 20.6626 34 20.6626C34 20.6626 34 20.6626 34 20.6626C34 20.6626 34 20.6626 34 20.6626C34 20.6626 34 20.6626 34 20.6626C34 20.6626 34 20.6626 34 20.6626C34 20.6626 34 20.6626 34 20.6626C34 20.6626 34 20.6626 34 20.6626C34 20.6626 34 20.6626 34 20.6626C34 20.6626 34 20.6626 34 20.6626C34 20.6626 34 20.6626 34 20.6626C34 20.6626 34 20.6626 34 20.6626C34 20.6626 34 20.6625 34 20.6625C34 20.6625 34 20.6625 34 20.6625C34 20.6625 34 20.6625 34 20.6625C34 20.6625 34 20.6625 34 20.6625C34 20.6625 34 20.6625 34 20.6625C34 20.6625 34 20.6625 34 20.6625C34 20.6625 34 20.6625 34 20.6625C34 20.6625 34 20.6625 34 20.6625C34 20.6625 34 20.6625 34 20.6625C34 20.6625 34 20.6625 34 20.6625C34 20.6625 34 20.6625 34 20.6625C34 20.6625 34 20.6625 34 20.6625C34 20.6625 34 20.6625 34 20.6625C34 20.6625 34 20.6625 34 20.6625C34 20.6625 34 20.6625 34 20.6625C34 20.6625 34 20.6625 34 20.6625C34 20.6625 34 20.6625 34 20.6625C34 20.6624 34 20.6624 34 20.6624C34 20.6624 34 20.6624 34 20.6624C34 20.6624 34 20.6624 34 20.6624C34 20.6624 34 20.6624 34 20.6624C34 20.6624 34 20.6624 34 20.6624C34 20.6624 34 20.6624 34 20.6624C34 20.6624 34 20.6624 34 20.6624C34 20.6624 34 20.6624 34 20.6624C34 20.6624 34 20.6624 34 20.6624C34 20.6624 34 20.6624 34 20.6624C34 20.6624 34 20.6624 34 20.6624C34 20.6624 34 20.6624 34 20.6624C34 20.6624 34 20.6624 34 20.6624C34 20.6624 34 20.6624 34 20.6624C34 20.6624 34 20.6624 34 20.6624C34 20.6624 34 20.6624 34 20.6624C34 20.6624 34 20.6623 34 20.6623C34 20.6623 34 20.6623 34 20.6623C34 20.6623 34 20.6623 34 20.6623C34 20.6623 34 20.6623 34 20.6623C34 20.6623 34 20.6623 34 20.6623C34 20.6623 34 20.6623 34 20.6623C34 20.6623 34 20.6623 34 20.6623C34 20.6623 34 20.6623 34 20.6623C34 20.6623 34 20.6623 34 20.6623C34 20.6623 34 20.6623 34 20.6623C34 20.6623 34 20.6623 34 20.6623C34 20.6623 34 20.6623 34 20.6623C34 20.6623 34 20.6623 34 20.6623C34 20.6623 34 20.6623 34 20.6623C34 20.6623 34 20.6623 34 20.6623C34 20.6623 34 20.6623 34 20.6623C34 20.6623 34 20.6623 34 20.6622C34 20.6622 34 20.6622 34 20.6622C34 20.6622 34 20.6622 34 20.6622C34 20.6622 34 20.6622 34 20.6622C34 20.6622 34 20.6622 34 20.6622C34 20.6622 34 20.6622 34 20.6622C34 20.6622 34 20.6622 34 20.6622C34 20.6622 34 20.6622 34 20.6622C34 20.6622 34 20.6622 34 20.6622C34 20.6622 34 20.6622 34 20.6622C34 20.6622 34 20.6622 34 20.6622C34 20.6622 34 20.6622 34 20.6622C34 20.6622 34 20.6622 34 20.6622C34 20.6622 34 20.6622 34 20.6622C34 20.6622 34 20.6622 34 20.6622C34 20.6622 34 20.6622 34 20.6622C34 20.6622 34 20.6622 34 20.6622C34 20.6622 34 20.6621 34 20.6621C34 20.6621 34 20.6621 34 20.6621C34 20.6621 34 20.6621 34 20.6621C34 20.6621 34 20.6621 34 20.6621C34 20.6621 34 20.6621 34 20.6621C34 20.6621 34 20.6621 34 20.6621C34 20.6621 34 20.6621 34 20.6621H30C30 20.6621 30 20.6621 30 20.6621C30 20.6621 30 20.6621 30 20.6621C30 20.6621 30 20.6621 30 20.6621C30 20.6621 30 20.6621 30 20.6621C30 20.6621 30 20.6621 30 20.6621C30 20.6621 30 20.6621 30 20.6621C30 20.6621 30 20.6622 30 20.6622C30 20.6622 30 20.6622 30 20.6622C30 20.6622 30 20.6622 30 20.6622C30 20.6622 30 20.6622 30 20.6622C30 20.6622 30 20.6622 30 20.6622C30 20.6622 30 20.6622 30 20.6622C30 20.6622 30 20.6622 30 20.6622C30 20.6622 30 20.6622 30 20.6622C30 20.6622 30 20.6622 30 20.6622C30 20.6622 30 20.6622 30 20.6622C30 20.6622 30 20.6622 30 20.6622C30 20.6622 30 20.6622 30 20.6622C30 20.6622 30 20.6622 30 20.6622C30 20.6622 30 20.6622 30 20.6622C30 20.6622 30 20.6622 30 20.6622C30 20.6622 30 20.6622 30 20.6622C30 20.6622 30 20.6622 30 20.6622C30 20.6623 30 20.6623 30 20.6623C30 20.6623 30 20.6623 30 20.6623C30 20.6623 30 20.6623 30 20.6623C30 20.6623 30 20.6623 30 20.6623C30 20.6623 30 20.6623 30 20.6623C30 20.6623 30 20.6623 30 20.6623C30 20.6623 30 20.6623 30 20.6623C30 20.6623 30 20.6623 30 20.6623C30 20.6623 30 20.6623 30 20.6623C30 20.6623 30 20.6623 30 20.6623C30 20.6623 30 20.6623 30 20.6623C30 20.6623 30 20.6623 30 20.6623C30 20.6623 30 20.6623 30 20.6623C30 20.6623 30 20.6623 30 20.6623C30 20.6623 30 20.6623 30 20.6623C30 20.6623 30 20.6623 30 20.6623C30 20.6623 30 20.6624 30 20.6624C30 20.6624 30 20.6624 30 20.6624C30 20.6624 30 20.6624 30 20.6624C30 20.6624 30 20.6624 30 20.6624C30 20.6624 30 20.6624 30 20.6624C30 20.6624 30 20.6624 30 20.6624C30 20.6624 30 20.6624 30 20.6624C30 20.6624 30 20.6624 30 20.6624C30 20.6624 30 20.6624 30 20.6624C30 20.6624 30 20.6624 30 20.6624C30 20.6624 30 20.6624 30 20.6624C30 20.6624 30 20.6624 30 20.6624C30 20.6624 30 20.6624 30 20.6624C30 20.6624 30 20.6624 30 20.6624C30 20.6624 30 20.6624 30 20.6624C30 20.6624 30 20.6624 30 20.6624C30 20.6624 30 20.6624 30 20.6625C30 20.6625 30 20.6625 30 20.6625C30 20.6625 30 20.6625 30 20.6625C30 20.6625 30 20.6625 30 20.6625C30 20.6625 30 20.6625 30 20.6625C30 20.6625 30 20.6625 30 20.6625C30 20.6625 30 20.6625 30 20.6625C30 20.6625 30 20.6625 30 20.6625C30 20.6625 30 20.6625 30 20.6625C30 20.6625 30 20.6625 30 20.6625C30 20.6625 30 20.6625 30 20.6625C30 20.6625 30 20.6625 30 20.6625C30 20.6625 30 20.6625 30 20.6625C30 20.6625 30 20.6625 30 20.6625C30 20.6625 30 20.6625 30 20.6625C30 20.6625 30 20.6625 30 20.6625C30 20.6625 30 20.6625 30 20.6625C30 20.6625 30 20.6626 30 20.6626C30 20.6626 30 20.6626 30 20.6626C30 20.6626 30 20.6626 30 20.6626C30 20.6626 30 20.6626 30 20.6626C30 20.6626 30 20.6626 30 20.6626C30 20.6626 30 20.6626 30 20.6626C30 20.6626 30 20.6626 30 20.6626C30 20.6626 30 20.6626 30 20.6626C30 20.6626 30 20.6626 30 20.6626C30 20.6626 30 20.6626 30 20.6626C30 20.6626 30 20.6626 30 20.6626C30 20.6626 30 20.6626 30 20.6626C30 20.6626 30 20.6626 30 20.6626C30 20.6626 30 20.6626 30 20.6626C30 20.6626 30 20.6626 30 20.6626C30 20.6626 30 20.6626 30 20.6626C30 20.6626 30 20.6627 30 20.6627C30 20.6627 30 20.6627 30 20.6627C30 20.6627 30 20.6627 30 20.6627C30 20.6627 30 20.6627 30 20.6627C30 20.6627 30 20.6627 30 20.6627C30 20.6627 30 20.6627 30 20.6627C30 20.6627 30 20.6627 30 20.6627C30 20.6627 30 20.6627 30 20.6627C30 20.6627 30 20.6627 30 20.6627C30 20.6627 30 20.6627 30 20.6627C30 20.6627 30 20.6627 30 20.6627C30 20.6627 30 20.6627 30 20.6627C30 20.6627 30 20.6627 30 20.6627C30 20.6627 30 20.6627 30 20.6627C30 20.6627 30 20.6627 30 20.6627C30 20.6627 30 20.6627 30 20.6627C30 20.6627 30 20.6627 30 20.6627C30 20.6628 30 20.6628 30 20.6628C30 20.6628 30 20.6628 30 20.6628C30 20.6628 30 20.6628 30 20.6628C30 20.6628 30 20.6628 30 20.6628C30 20.6628 30 20.6628 30 20.6628C30 20.6628 30 20.6628 30 20.6628C30 20.6628 30 20.6628 30 20.6628C30 20.6628 30 20.6628 30 20.6628C30 20.6628 30 20.6628 30 20.6628C30 20.6628 30 20.6628 30 20.6628C30 20.6628 30 20.6628 30 20.6628C30 20.6628 30 20.6628 30 20.6628C30 20.6628 30 20.6628 30 20.6628C30 20.6628 30 20.6628 30 20.6628C30 20.6628 30 20.6628 30 20.6628C30 20.6628 30 20.6628 30 20.6628C30 20.6628 30 20.6629 30 20.6629C30 20.6629 30 20.6629 30 20.6629C30 20.6629 30 20.6629 30 20.6629C30 20.6629 30 20.6629 30 20.6629C30 20.6629 30 20.6629 30 20.6629C30 20.6629 30 20.6629 30 20.6629C30 20.6629 30 20.6629 30 20.6629C30 20.6629 30 20.6629 30 20.6629C30 20.6629 30 20.6629 30 20.6629C30 20.6629 30 20.6629 30 20.6629C30 20.6629 30 20.6629 30 20.6629C30 20.6629 30 20.6629 30 20.6629C30 20.6629 30 20.6629 30 20.6629C30 20.6629 30 20.6629 30 20.6629C30 20.6629 30 20.6629 30 20.6629C30 20.6629 30 20.6629 30 20.6629C30 20.6629 30 20.6629 30 20.663C30 20.663 30 20.663 30 20.663C30 20.663 30 20.663 30 20.663C30 20.663 30 20.663 30 20.663C30 20.663 30 20.663 30 20.663C30 20.663 30 20.663 30 20.663C30 20.663 30 20.663 30 20.663C30 20.663 30 20.663 30 20.663C30 20.663 30 20.663 30 20.663C30 20.663 30 20.663 30 20.663C30 20.663 30 20.663 30 20.663C30 20.663 30 20.663 30 20.663C30 20.663 30 20.663 30 20.663C30 20.663 30 20.663 30 20.663C30 20.663 30 20.663 30 20.663C30 20.663 30 20.663 30 20.663C30 20.663 30 20.663 30 20.663C30 20.663 30 20.6631 30 20.6631C30 20.6631 30 20.6631 30 20.6631C30 20.6631 30 20.6631 30 20.6631C30 20.6631 30 20.6631 30 20.6631C30 20.6631 30 20.6631 30 20.6631C30 20.6631 30 20.6631 30 20.6631C30 20.6631 30 20.6631 30 20.6631C30 20.6631 30 20.6631 30 20.6631C30 20.6631 30 20.6631 30 20.6631C30 20.6631 30 20.6631 30 20.6631C30 20.6631 30 20.6631 30 20.6631C30 20.6631 30 20.6631 30 20.6631C30 20.6631 30 20.6631 30 20.6631C30 20.6631 30 20.6631 30 20.6631C30 20.6631 30 20.6631 30 20.6631C30 20.6631 30 20.6631 30 20.6631C30 20.6631 30 20.6631 30 20.6632C30 20.6632 30 20.6632 30 20.6632C30 20.6632 30 20.6632 30 20.6632C30 20.6632 30 20.6632 30 20.6632C30 20.6632 30 20.6632 30 20.6632C30 20.6632 30 20.6632 30 20.6632C30 20.6632 30 20.6632 30 20.6632C30 20.6632 30 20.6632 30 20.6632C30 20.6632 30 20.6632 30 20.6632C30 20.6632 30 20.6632 30 20.6632C30 20.6632 30 20.6632 30 20.6632C30 20.6632 30 20.6632 30 20.6632C30 20.6632 30 20.6632 30 20.6632C30 20.6632 30 20.6632 30 20.6632C30 20.6632 30 20.6632 30 20.6632C30 20.6632 30 20.6632 30 20.6632C30 20.6632 30 20.6632 30 20.6632C30 20.6633 30 20.6633 30 20.6633C30 20.6633 30 20.6633 30 20.6633C30 20.6633 30 20.6633 30 20.6633C30 20.6633 30 20.6633 30 20.6633C30 20.6633 30 20.6633 30 20.6633C30 20.6633 30 20.6633 30 20.6633C30 20.6633 30 20.6633 30 20.6633C30 20.6633 30 20.6633 30 20.6633C30 20.6633 30 20.6633 30 20.6633C30 20.6633 30 20.6633 30 20.6633C30 20.6633 30 20.6633 30 20.6633C30 20.6633 30 20.6633 30 20.6633C30 20.6633 30 20.6633 30 20.6633C30 20.6633 30 20.6633 30 20.6633C30 20.6633 30 20.6633 30 20.6633C30 20.6633 30 20.6633 30 20.6633C30 20.6633 30 20.6634 30 20.6634C30 20.6634 30 20.6634 30 20.6634C30 20.6634 30 20.6634 30 20.6634C30 20.6634 30 20.6634 30 20.6634C30 20.6634 30 20.6634 30 20.6634C30 20.6634 30 20.6634 30 20.6634C30 20.6634 30 20.6634 30 20.6634C30 20.6634 30 20.6634 30 20.6634C30 20.6634 30 20.6634 30 20.6634C30 20.6634 30 20.6634 30 20.6634C30 20.6634 30 20.6634 30 20.6634C30 20.6634 30 20.6634 30 20.6634C30 20.6634 30 20.6634 30 20.6634C30 20.6634 30 20.6634 30 20.6634C30 20.6634 30 20.6634 30 20.6634C30 20.6634 30 20.6634 30 20.6634C30 20.6634 30 20.6634 30 20.6635C30 20.6635 30 20.6635 30 20.6635C30 20.6635 30 20.6635 30 20.6635C30 20.6635 30 20.6635 30 20.6635C30 20.6635 30 20.6635 30 20.6635C30 20.6635 30 20.6635 30 20.6635C30 20.6635 30 20.6635 30 20.6635C30 20.6635 30 20.6635 30 20.6635C30 20.6635 30 20.6635 30 20.6635C30 20.6635 30 20.6635 30 20.6635C30 20.6635 30 20.6635 30 20.6635C30 20.6635 30 20.6635 30 20.6635C30 20.6635 30 20.6635 30 20.6635C30 20.6635 30 20.6635 30 20.6635C30 20.6635 30 20.6635 30 20.6635C30 20.6635 30 20.6635 30 20.6635C30 20.6635 30 20.6635 30 20.6635C30 20.6635 30 20.6636 30 20.6636C30 20.6636 30 20.6636 30 20.6636C30 20.6636 30 20.6636 30 20.6636C30 20.6636 30 20.6636 30 20.6636C30 20.6636 30 20.6636 30 20.6636C30 20.6636 30 20.6636 30 20.6636C30 20.6636 30 20.6636 30 20.6636C30 20.6636 30 20.6636 30 20.6636C30 20.6636 30 20.6636 30 20.6636C30 20.6636 30 20.6636 30 20.6636C30 20.6636 30 20.6636 30 20.6636C30 20.6636 30 20.6636 30 20.6636C30 20.6636 30 20.6636 30 20.6636C30 20.6636 30 20.6636 30 20.6636C30 20.6636 30 20.6636 30 20.6636C30 20.6636 30 20.6636 30 20.6636C30 20.6636 30 20.6636 30 20.6637C30 20.6637 30 20.6637 30 20.6637C30 20.6637 30 20.6637 30 20.6637C30 20.6637 30 20.6637 30 20.6637C30 20.6637 30 20.6637 30 20.6637C30 20.6637 30 20.6637 30 20.6637C30 20.6637 30 20.6637 30 20.6637C30 20.6637 30 20.6637 30 20.6637C30 20.6637 30 20.6637 30 20.6637C30 20.6637 30 20.6637 30 20.6637C30 20.6637 30 20.6637 30 20.6637C30 20.6637 30 20.6637 30 20.6637C30 20.6637 30 20.6637 30 20.6637C30 20.6637 30 20.6637 30 20.6637C30 20.6637 30 20.6637 30 20.6637C30 20.6637 30 20.6637 30 20.6637C30 20.6637 30 20.6637 30 20.6637C30 20.6638 30 20.6638 30 20.6638C30 20.6638 30 20.6638 30 20.6638C30 20.6638 30 20.6638 30 20.6638C30 20.6638 30 20.6638 30 20.6638C30 20.6638 30 20.6638 30 20.6638C30 20.6638 30 20.6638 30 20.6638C30 20.6638 30 20.6638 30 20.6638C30 20.6638 30 20.6638 30 20.6638C30 20.6638 30 20.6638 30 20.6638C30 20.6638 30 20.6638 30 20.6638C30 20.6638 30 20.6638 30 20.6638C30 20.6638 30 20.6638 30 20.6638C30 20.6638 30 20.6638 30 20.6638C30 20.6638 30 20.6638 30 20.6638C30 20.6638 30 20.6638 30 20.6638C30 20.6638 30 20.6638 30 20.6638C30 20.6638 30 20.6639 30 20.6639C30 20.6639 30 20.6639 30 20.6639C30 20.6639 30 20.6639 30 20.6639C30 20.6639 30 20.6639 30 20.6639C30 20.6639 30 20.6639 30 20.6639C30 20.6639 30 20.6639 30 20.6639C30 20.6639 30 20.6639 30 20.6639C30 20.6639 30 20.6639 30 20.6639C30 20.6639 30 20.6639 30 20.6639C30 20.6639 30 20.6639 30 20.6639C30 20.6639 30 20.6639 30 20.6639C30 20.6639 30 20.6639 30 20.6639C30 20.6639 30 20.6639 30 20.6639C30 20.6639 30 20.6639 30 20.6639C30 20.6639 30 20.6639 30 20.6639C30 20.6639 30 20.6639 30 20.6639C30 20.6639 30 20.6639 30 20.6639C30 20.664 30 20.664 30 20.664C30 20.664 30 20.664 30 20.664C30 20.664 30 20.664 30 20.664C30 20.664 30 20.664 30 20.664C30 20.664 30 20.664 30 20.664C30 20.664 30 20.664 30 20.664C30 20.664 30 20.664 30 20.664C30 20.664 30 20.664 30 20.664C30 20.664 30 20.664 30 20.664C30 20.664 30 20.664 30 20.664C30 20.664 30 20.664 30 20.664C30 20.664 30 20.664 30 20.664C30 20.664 30 20.664 30 20.664C30 20.664 30 20.664 30 20.664C30 20.664 30 20.664 30 20.664C30 20.664 30 20.664 30 20.664C30 20.664 30 20.6641 30 20.6641C30 20.6641 30 20.6641 30 20.6641C30 20.6641 30 20.6641 30 20.6641C30 20.6641 30 20.6641 30 20.6641C30 20.6641 30 20.6641 30 20.6641C30 20.6641 30 20.6641 30 20.6641C30 20.6641 30 20.6641 30 20.6641C30 20.6641 30 20.6641 30 20.6641C30 20.6641 30 20.6641 30 20.6641C30 20.6641 30 20.6641 30 20.6641C30 20.6641 30 20.6641 30 20.6641C30 20.6641 30 20.6641 30 20.6641C30 20.6641 30 20.6641 30 20.6641C30 20.6641 30 20.6641 30 20.6641C30 20.6641 30 20.6641 30 20.6641C30 20.6641 30 20.6641 30 20.6641C30 20.6641 30 20.6641 30 20.6642C30 20.6642 30 20.6642 30 20.6642C30 20.6642 30 20.6642 30 20.6642C30 20.6642 30 20.6642 30 20.6642C30 20.6642 30 20.6642 30 20.6642C30 20.6642 30 20.6642 30 20.6642C30 20.6642 30 20.6642 30 20.6642C30 20.6642 30 20.6642 30 20.6642C30 20.6642 30 20.6642 30 20.6642C30 20.6642 30 20.6642 30 20.6642C30 20.6642 30 20.6642 30 20.6642C30 20.6642 30 20.6642 30 20.6642C30 20.6642 30 20.6642 30 20.6642C30 20.6642 30 20.6642 30 20.6642C30 20.6642 30 20.6642 30 20.6642C30 20.6642 30 20.6642 30 20.6642C30 20.6642 30 20.6642 30 20.6642C30 20.6643 30 20.6643 30 20.6643C30 20.6643 30 20.6643 30 20.6643C30 20.6643 30 20.6643 30 20.6643C30 20.6643 30 20.6643 30 20.6643C30 20.6643 30 20.6643 30 20.6643C30 20.6643 30 20.6643 30 20.6643C30 20.6643 30 20.6643 30 20.6643C30 20.6643 30 20.6643 30 20.6643C30 20.6643 30 20.6643 30 20.6643C30 20.6643 30 20.6643 30 20.6643C30 20.6643 30 20.6643 30 20.6643C30 20.6643 30 20.6643 30 20.6643C30 20.6643 30 20.6643 30 20.6643C30 20.6643 30 20.6643 30 20.6643C30 20.6643 30 20.6643 30 20.6643C30 20.6643 30 20.6643 30 20.6643C30 20.6643 30 20.6644 30 20.6644C30 20.6644 30 20.6644 30 20.6644C30 20.6644 30 20.6644 30 20.6644C30 20.6644 30 20.6644 30 20.6644C30 20.6644 30 20.6644 30 20.6644C30 20.6644 30 20.6644 30 20.6644C30 20.6644 30 20.6644 30 20.6644C30 20.6644 30 20.6644 30 20.6644C30 20.6644 30 20.6644 30 20.6644C30 20.6644 30 20.6644 30 20.6644C30 20.6644 30 20.6644 30 20.6644C30 20.6644 30 20.6644 30 20.6644C30 20.6644 30 20.6644 30 20.6644C30 20.6644 30 20.6644 30 20.6644C30 20.6644 30 20.6644 30 20.6644C30 20.6644 30 20.6644 30 20.6644C30 20.6644 30 20.6644 30 20.6644C30 20.6645 30 20.6645 30 20.6645C30 20.6645 30 20.6645 30 20.6645C30 20.6645 30 20.6645 30 20.6645C30 20.6645 30 20.6645 30 20.6645C30 20.6645 30 20.6645 30 20.6645C30 20.6645 30 20.6645 30 20.6645C30 20.6645 30 20.6645 30 20.6645C30 20.6645 30 20.6645 30 20.6645C30 20.6645 30 20.6645 30 20.6645C30 20.6645 30 20.6645 30 20.6645C30 20.6645 30 20.6645 30 20.6645C30 20.6645 30 20.6645 30 20.6645C30 20.6645 30 20.6645 30 20.6645C30 20.6645 30 20.6645 30 20.6645C30 20.6645 30 20.6645 30 20.6645C30 20.6645 30 20.6645 30 20.6645C30 20.6645 30 20.6646 30 20.6646C30 20.6646 30 20.6646 30 20.6646C30 20.6646 30 20.6646 30 20.6646C30 20.6646 30 20.6646 30 20.6646C30 20.6646 30 20.6646 30 20.6646C30 20.6646 30 20.6646 30 20.6646C30 20.6646 30 20.6646 30 20.6646C30 20.6646 30 20.6646 30 20.6646C30 20.6646 30 20.6646 30 20.6646C30 20.6646 30 20.6646 30 20.6646C30 20.6646 30 20.6646 30 20.6646C30 20.6646 30 20.6646 30 20.6646C30 20.6646 30 20.6646 30 20.6646C30 20.6646 30 20.6646 30 20.6646C30 20.6646 30 20.6646 30 20.6646C30 20.6646 30 20.6646 30 20.6646C30 20.6646 30 20.6646 30 20.6647C30 20.6647 30 20.6647 30 20.6647C30 20.6647 30 20.6647 30 20.6647C30 20.6647 30 20.6647 30 20.6647C30 20.6647 30 20.6647 30 20.6647C30 20.6647 30 20.6647 30 20.6647C30 20.6647 30 20.6647 30 20.6647C30 20.6647 30 20.6647 30 20.6647C30 20.6647 30 20.6647 30 20.6647C30 20.6647 30 20.6647 30 20.6647C30 20.6647 30 20.6647 30 20.6647C30 20.6647 30 20.6647 30 20.6647C30 20.6647 30 20.6647 30 20.6647C30 20.6647 30 20.6647 30 20.6647C30 20.6647 30 20.6647 30 20.6647C30 20.6647 30 20.6647 30 20.6647C30 20.6647 30 20.6647 30 20.6647C30 20.6648 30 20.6648 30 20.6648C30 20.6648 30 20.6648 30 20.6648C30 20.6648 30 20.6648 30 20.6648C30 20.6648 30 20.6648 30 20.6648C30 20.6648 30 20.6648 30 20.6648C30 20.6648 30 20.6648 30 20.6648C30 20.6648 30 20.6648 30 20.6648C30 20.6648 30 20.6648 30 20.6648C30 20.6648 30 20.6648 30 20.6648C30 20.6648 30 20.6648 30 20.6648C30 20.6648 30 20.6648 30 20.6648C30 20.6648 30 20.6648 30 20.6648C30 20.6648 30 20.6648 30 20.6648C30 20.6648 30 20.6648 30 20.6648C30 20.6648 30 20.6648 30 20.6648C30 20.6648 30 20.6648 30 20.6648C30 20.6648 30 20.6649 30 20.6649C30 20.6649 30 20.6649 30 20.6649C30 20.6649 30 20.6649 30 20.6649C30 20.6649 30 20.6649 30 20.6649C30 20.6649 30 20.6649 30 20.6649C30 20.6649 30 20.6649 30 20.6649C30 20.6649 30 20.6649 30 20.6649C30 20.6649 30 20.6649 30 20.6649C30 20.6649 30 20.6649 30 20.6649C30 20.6649 30 20.6649 30 20.6649C30 20.6649 30 20.6649 30 20.6649C30 20.6649 30 20.6649 30 20.6649C30 20.6649 30 20.6649 30 20.6649C30 20.6649 30 20.6649 30 20.6649C30 20.6649 30 20.6649 30 20.6649C30 20.6649 30 20.6649 30 20.6649C30 20.6649 30 20.6649 30 20.6649C30 20.665 30 20.665 30 20.665C30 20.665 30 20.665 30 20.665C30 20.665 30 20.665 30 20.665C30 20.665 30 20.665 30 20.665C30 20.665 30 20.665 30 20.665C30 20.665 30 20.665 30 20.665C30 20.665 30 20.665 30 20.665C30 20.665 30 20.665 30 20.665C30 20.665 30 20.665 30 20.665C30 20.665 30 20.665 30 20.665C30 20.665 30 20.665 30 20.665C30 20.665 30 20.665 30 20.665C30 20.665 30 20.665 30 20.665C30 20.665 30 20.665 30 20.665C30 20.665 30 20.665 30 20.665C30 20.665 30 20.665 30 20.665C30 20.665 30 20.6651 30 20.6651C30 20.6651 30 20.6651 30 20.6651C30 20.6651 30 20.6651 30 20.6651C30 20.6651 30 20.6651 30 20.6651C30 20.6651 30 20.6651 30 20.6651C30 20.6651 30 20.6651 30 20.6651C30 20.6651 30 20.6651 30 20.6651C30 20.6651 30 20.6651 30 20.6651C30 20.6651 30 20.6651 30 20.6651C30 20.6651 30 20.6651 30 20.6651C30 20.6651 30 20.6651 30 20.6651C30 20.6651 30 20.6651 30 20.6651C30 20.6651 30 20.6651 30 20.6651C30 20.6651 30 20.6651 30 20.6651C30 20.6651 30 20.6651 30 20.6651C30 20.6651 30 20.6651 30 20.6651C30 20.6651 30 20.6651 30 20.6652C30 20.6652 30 20.6652 30 20.6652C30 20.6652 30 20.6652 30 20.6652C30 20.6652 30 20.6652 30 20.6652C30 20.6652 30 20.6652 30 20.6652C30 20.6652 30 20.6652 30 20.6652C30 20.6652 30 20.6652 30 20.6652C30 20.6652 30 20.6652 30 20.6652C30 20.6652 30 20.6652 30 20.6652C30 20.6652 30 20.6652 30 20.6652C30 20.6652 30 20.6652 30 20.6652C30 20.6652 30 20.6652 30 20.6652C30 20.6652 30 20.6652 30 20.6652C30 20.6652 30 20.6652 30 20.6652H34ZM30 20.6652V25.9947H34V20.6652H30ZM30 25.9947H4V29.9947H30V25.9947ZM4 25.9947V20.6652H1.19209e-07V25.9947H4ZM1.19209e-07 20.6617C-2.38419e-07 20.663 1.19209e-07 20.6648 1.19209e-07 20.6652H4C4 20.6636 4 20.6633 4 20.6625L1.19209e-07 20.6617ZM1.30026 14.2729C0.4427 16.297 0.000477672 18.468 1.19209e-07 20.6617L4 20.6625C4.00036 19.0066 4.33409 17.3658 4.98335 15.8333L1.30026 14.2729ZM4.99523 8.86527C3.41456 10.4107 2.15825 12.2478 1.30026 14.2729L4.98335 15.8333C5.63301 14.2999 6.58647 12.9036 7.79156 11.7254L4.99523 8.86527ZM10.509 5.26256C8.44978 6.0965 6.5758 7.31997 4.99523 8.86527L7.79156 11.7254C8.99675 10.5471 10.4299 9.61014 12.0105 8.97008L10.509 5.26256ZM17 4C14.7737 4 12.5682 4.42866 10.509 5.26256L12.0105 8.97008C13.5911 8.32999 15.2866 8 17 8V4ZM23.491 5.26256C21.4318 4.42866 19.2263 4 17 4V8C18.7134 8 20.4089 8.32999 21.9895 8.97008L23.491 5.26256ZM29.0048 8.86526C27.4242 7.31997 25.5502 6.0965 23.491 5.26256L21.9895 8.97008C23.5701 9.61014 25.0033 10.5471 26.2084 11.7254L29.0048 8.86526ZM32.6997 14.2729C31.8418 12.2478 30.5854 10.4107 29.0048 8.86526L26.2084 11.7254C27.4135 12.9036 28.367 14.2999 29.0166 15.8333L32.6997 14.2729ZM34 20.6617C33.9995 18.468 33.5573 16.297 32.6997 14.2729L29.0166 15.8333C29.6659 17.3658 29.9996 19.0066 30 20.6625L34 20.6617ZM4 25.9947H1.19209e-07C1.19209e-07 28.2039 1.79086 29.9947 4 29.9947V25.9947ZM30 25.9947V29.9947C32.2091 29.9947 34 28.2039 34 25.9947H30Z" fill="black" mask="url(#path-5-inside-1_375_46584)"/>
<mask id="path-7-inside-2_375_46584" fill="white">
<path d="M24.4961 20.6666C24.4961 19.7037 24.3021 18.7502 23.9252 17.8605C23.5483 16.9709 22.9958 16.1626 22.2994 15.4817C21.603 14.8008 20.7762 14.2606 19.8662 13.8921C18.9563 13.5236 17.981 13.334 16.9961 13.334C16.0112 13.334 15.0359 13.5236 14.126 13.8921C13.216 14.2606 12.3892 14.8008 11.6928 15.4817C10.9964 16.1626 10.4439 16.9709 10.067 17.8605C9.69009 18.7502 9.49609 19.7037 9.49609 20.6666L16.9961 20.6666H24.4961Z"/>
</mask>
<path d="M24.4961 20.6666C24.4961 19.7037 24.3021 18.7502 23.9252 17.8605C23.5483 16.9709 22.9958 16.1626 22.2994 15.4817C21.603 14.8008 20.7762 14.2606 19.8662 13.8921C18.9563 13.5236 17.981 13.334 16.9961 13.334C16.0112 13.334 15.0359 13.5236 14.126 13.8921C13.216 14.2606 12.3892 14.8008 11.6928 15.4817C10.9964 16.1626 10.4439 16.9709 10.067 17.8605C9.69009 18.7502 9.49609 19.7037 9.49609 20.6666L16.9961 20.6666H24.4961Z" stroke="black" stroke-width="4" stroke-linejoin="round" mask="url(#path-7-inside-2_375_46584)"/>
</svg>
