<svg width="32" height="32" viewBox="0 0 32 32" fill="none" xmlns="http://www.w3.org/2000/svg">
<mask id="path-1-inside-1_375_46556" fill="white">
<path fill-rule="evenodd" clip-rule="evenodd" d="M14 3C14 2.44772 13.5523 2 13 2C12.4477 2 12 2.44772 12 3V4H7C5.89543 4 5 4.89543 5 6V25C5 26.1046 5.89543 27 7 27H21.6L24 29L27 26.5V24V11C27 9.89543 26.1046 9 25 9V6C25 4.89543 24.1046 4 23 4H19V3C19 2.44772 18.5523 2 18 2C17.4477 2 17 2.44772 17 3V4H14V3ZM21 24V11C21 9.89543 21.8954 9 23 9V6H19V7C19 7.55228 18.5523 8 18 8C17.4477 8 17 7.55228 17 7V6H14V7C14 7.55228 13.5523 8 13 8C12.4477 8 12 7.55228 12 7V6H7V25H21V24ZM11 11C10.4477 11 10 11.4477 10 12C10 12.5523 10.4477 13 11 13H19C19.5523 13 20 12.5523 20 12C20 11.4477 19.5523 11 19 11H11ZM10 16C10 15.4477 10.4477 15 11 15H19C19.5523 15 20 15.4477 20 16C20 16.5523 19.5523 17 19 17H11C10.4477 17 10 16.5523 10 16ZM11 19C10.4477 19 10 19.4477 10 20C10 20.5523 10.4477 21 11 21H19C19.5523 21 20 20.5523 20 20C20 19.4477 19.5523 19 19 19H11Z"/>
</mask>
<path d="M12 4V6H14V4H12ZM21.6 27L22.8804 25.4636L22.3241 25H21.6V27ZM24 29L22.7196 30.5364L24 31.6034L25.2804 30.5364L24 29ZM27 26.5L28.2804 28.0364L29 27.4368V26.5H27ZM25 9H23V11H25V9ZM19 4H17V6H19V4ZM17 4V6H19V4H17ZM14 4H12V6H14V4ZM23 9V11H25V9H23ZM23 6H25V4H23V6ZM19 6V4H17V6H19ZM17 6H19V4H17V6ZM14 6V4H12V6H14ZM12 6H14V4H12V6ZM7 6V4H5V6H7ZM7 25H5V27H7V25ZM21 25V27H23V25H21ZM13 4C12.4477 4 12 3.55228 12 3H16C16 1.34315 14.6569 0 13 0V4ZM14 3C14 3.55228 13.5523 4 13 4V0C11.3431 0 10 1.34315 10 3H14ZM14 4V3H10V4H14ZM7 6H12V2H7V6ZM7 6V6V2C4.79086 2 3 3.79086 3 6H7ZM7 25V6H3V25H7ZM7 25H7H3C3 27.2091 4.79086 29 7 29V25ZM21.6 25H7V29H21.6V25ZM25.2804 27.4636L22.8804 25.4636L20.3196 28.5364L22.7196 30.5364L25.2804 27.4636ZM25.7196 24.9636L22.7196 27.4636L25.2804 30.5364L28.2804 28.0364L25.7196 24.9636ZM25 24V26.5H29V24H25ZM25 11V24H29V11H25ZM25 11H29C29 8.79086 27.2091 7 25 7V11ZM23 6V9H27V6H23ZM23 6H27C27 3.79086 25.2091 2 23 2V6ZM19 6H23V2H19V6ZM17 3V4H21V3H17ZM18 4C17.4477 4 17 3.55228 17 3H21C21 1.34315 19.6569 0 18 0V4ZM19 3C19 3.55228 18.5523 4 18 4V0C16.3431 0 15 1.34315 15 3H19ZM19 4V3H15V4H19ZM14 6H17V2H14V6ZM12 3V4H16V3H12ZM19 11V24H23V11H19ZM23 7C20.7909 7 19 8.79086 19 11H23V7ZM21 6V9H25V6H21ZM19 8H23V4H19V8ZM21 7V6H17V7H21ZM18 10C19.6569 10 21 8.65685 21 7H17C17 6.44772 17.4477 6 18 6V10ZM15 7C15 8.65685 16.3431 10 18 10V6C18.5523 6 19 6.44772 19 7H15ZM15 6V7H19V6H15ZM14 8H17V4H14V8ZM16 7V6H12V7H16ZM13 10C14.6569 10 16 8.65685 16 7H12C12 6.44772 12.4477 6 13 6V10ZM10 7C10 8.65685 11.3431 10 13 10V6C13.5523 6 14 6.44772 14 7H10ZM10 6V7H14V6H10ZM7 8H12V4H7V8ZM9 25V6H5V25H9ZM21 23H7V27H21V23ZM23 25V24H19V25H23ZM12 12C12 12.5523 11.5523 13 11 13V9C9.34315 9 8 10.3431 8 12H12ZM11 11C11.5523 11 12 11.4477 12 12H8C8 13.6569 9.34315 15 11 15V11ZM19 11H11V15H19V11ZM18 12C18 11.4477 18.4477 11 19 11V15C20.6569 15 22 13.6569 22 12H18ZM19 13C18.4477 13 18 12.5523 18 12H22C22 10.3431 20.6569 9 19 9V13ZM11 13H19V9H11V13ZM11 13C9.34315 13 8 14.3431 8 16H12C12 16.5523 11.5523 17 11 17V13ZM19 13H11V17H19V13ZM22 16C22 14.3431 20.6569 13 19 13V17C18.4477 17 18 16.5523 18 16H22ZM19 19C20.6569 19 22 17.6569 22 16H18C18 15.4477 18.4477 15 19 15V19ZM11 19H19V15H11V19ZM8 16C8 17.6569 9.34315 19 11 19V15C11.5523 15 12 15.4477 12 16H8ZM12 20C12 20.5523 11.5523 21 11 21V17C9.34315 17 8 18.3431 8 20H12ZM11 19C11.5523 19 12 19.4477 12 20H8C8 21.6569 9.34315 23 11 23V19ZM19 19H11V23H19V19ZM18 20C18 19.4477 18.4477 19 19 19V23C20.6569 23 22 21.6569 22 20H18ZM19 21C18.4477 21 18 20.5523 18 20H22C22 18.3431 20.6569 17 19 17V21ZM11 21H19V17H11V21Z" fill="black" mask="url(#path-1-inside-1_375_46556)"/>
</svg>
