<svg width="1054" height="154" viewBox="0 0 1054 154" fill="none" xmlns="http://www.w3.org/2000/svg">
<rect x="1052.5" y="1.5" width="151" height="1051" transform="rotate(90 1052.5 1.5)" fill="#DAE5F0" fill-opacity="0.6"/>
<rect x="1052.5" y="1.5" width="151" height="1051" transform="rotate(90 1052.5 1.5)" stroke="#DAE5F0" stroke-width="3"/>
<path d="M86.4067 28.0224L86.4067 0.0625L84.0753 0.0625L84.0753 28.0224L86.4067 28.0224Z" fill="#25315E"/>
<path d="M94.7827 16.1965L94.7827 0.0625L92.4513 0.0625L92.4513 16.1965L94.7827 16.1965Z" fill="#25315E"/>
<path d="M103.13 16.1965L103.13 0.0625L100.77 0.0625L100.77 16.1965L103.13 16.1965Z" fill="#25315E"/>
<path d="M111.477 16.1965L111.477 0.0625L109.145 0.0625L109.145 16.1965L111.477 16.1965Z" fill="#25315E"/>
<path d="M119.853 20.7939L119.853 0.0625L117.521 0.0625L117.521 20.7939L119.853 20.7939Z" fill="#25315E"/>
<path d="M128.2 16.1965L128.2 0.0625L125.868 0.0625L125.868 16.1965L128.2 16.1965Z" fill="#25315E"/>
<path d="M136.547 16.1965L136.547 0.0625L134.187 0.0625L134.187 16.1965L136.547 16.1965Z" fill="#25315E"/>
<path d="M144.894 16.1965L144.894 0.0625L142.562 0.0625L142.562 16.1965L144.894 16.1965Z" fill="#25315E"/>
<path d="M153.27 28.0224L153.27 0.0625L150.938 0.0625L150.938 28.0224L153.27 28.0224Z" fill="#25315E"/>
<path d="M19.5728 28.0224L19.5728 0.0625L17.2413 0.0625L17.2413 28.0224L19.5728 28.0224Z" fill="#25315E"/>
<path d="M27.9197 16.1965L27.9197 0.0625L25.5595 0.0625L25.5595 16.1965L27.9197 16.1965Z" fill="#25315E"/>
<path d="M36.2954 16.1965L36.2954 0.0625L33.964 0.0625L33.964 16.1965L36.2954 16.1965Z" fill="#25315E"/>
<path d="M44.6426 16.1965L44.6426 0.0625L42.3112 0.0625L42.3112 16.1965L44.6426 16.1965Z" fill="#25315E"/>
<path d="M52.9897 20.7939L52.9897 0.0625L50.6295 0.0625L50.6295 20.7939L52.9897 20.7939Z" fill="#25315E"/>
<path d="M61.3369 16.1965L61.3369 0.0625L59.0055 0.0625L59.0055 16.1965L61.3369 16.1965Z" fill="#25315E"/>
<path d="M69.7126 16.1965L69.7126 0.0625L67.3812 0.0625L67.3812 16.1965L69.7126 16.1965Z" fill="#25315E"/>
<path d="M78.0596 16.1965L78.0596 0.0625L75.6993 0.0625L75.6993 16.1965L78.0596 16.1965Z" fill="#25315E"/>
<path d="M161.617 16.1965L161.617 0.0625L159.256 0.0625L159.256 16.1965L161.617 16.1965Z" fill="#25315E"/>
<path d="M169.964 16.1965L169.964 0.0625L167.632 0.0625L167.632 16.1965L169.964 16.1965Z" fill="#25315E"/>
<path d="M178.34 16.1965L178.34 0.0625L176.008 0.0625L176.008 16.1965L178.34 16.1965Z" fill="#25315E"/>
<path d="M186.687 20.7939L186.687 0.0625L184.326 0.0625L184.326 20.7939L186.687 20.7939Z" fill="#25315E"/>
<path d="M195.034 16.1965L195.034 0.0625L192.702 0.0625L192.702 16.1965L195.034 16.1965Z" fill="#25315E"/>
<path d="M203.381 16.1965L203.381 0.0625L201.049 0.0625L201.049 16.1965L203.381 16.1965Z" fill="#25315E"/>
<path d="M211.757 16.1965L211.757 0.0625L209.397 0.0625L209.397 16.1965L211.757 16.1965Z" fill="#25315E"/>
<path d="M220.104 28.0224L220.104 0.0625L217.772 0.0625L217.772 28.0224L220.104 28.0224Z" fill="#25315E"/>
<path d="M228.451 16.1965L228.451 0.0625L226.119 0.0625L226.119 16.1965L228.451 16.1965Z" fill="#25315E"/>
<path d="M236.827 16.1965L236.827 0.0625L234.466 0.0625L234.466 16.1965L236.827 16.1965Z" fill="#25315E"/>
<path d="M245.174 16.1965L245.174 0.0625L242.813 0.0625L242.813 16.1965L245.174 16.1965Z" fill="#25315E"/>
<path d="M253.521 20.7939L253.521 0.0625L251.189 0.0625L251.189 20.7939L253.521 20.7939Z" fill="#25315E"/>
<path d="M261.868 16.1965L261.868 0.0625L259.537 0.0625L259.537 16.1965L261.868 16.1965Z" fill="#25315E"/>
<path d="M270.244 16.1965L270.244 0.0625L267.883 0.0625L267.883 16.1965L270.244 16.1965Z" fill="#25315E"/>
<path d="M278.591 16.1965L278.591 0.0625L276.259 0.0625L276.259 16.1965L278.591 16.1965Z" fill="#25315E"/>
<path d="M286.938 28.0224L286.938 0.0625L284.606 0.0625L284.606 28.0224L286.938 28.0224Z" fill="#25315E"/>
<path d="M295.313 16.1965L295.313 0.0625L292.953 0.0625L292.953 16.1965L295.313 16.1965Z" fill="#25315E"/>
<path d="M303.661 16.1965L303.661 0.0625L301.329 0.0625L301.329 16.1965L303.661 16.1965Z" fill="#25315E"/>
<path d="M312.008 16.1965L312.008 0.0625L309.676 0.0625L309.676 16.1965L312.008 16.1965Z" fill="#25315E"/>
<path d="M320.384 20.7939L320.384 0.0625L318.023 0.0625L318.023 20.7939L320.384 20.7939Z" fill="#25315E"/>
<path d="M328.731 16.1965L328.731 0.0625L326.399 0.0625L326.399 16.1965L328.731 16.1965Z" fill="#25315E"/>
<path d="M337.078 16.1965L337.078 0.0625L334.746 0.0625L334.746 16.1965L337.078 16.1965Z" fill="#25315E"/>
<path d="M345.454 16.1965L345.454 0.0625L343.093 0.0625L343.093 16.1965L345.454 16.1965Z" fill="#25315E"/>
<path d="M353.801 28.0224L353.801 0.0625L351.469 0.0625L351.469 28.0224L353.801 28.0224Z" fill="#25315E"/>
<path d="M362.148 16.1965L362.148 0.0625L359.816 0.0625L359.816 16.1965L362.148 16.1965Z" fill="#25315E"/>
<path d="M370.495 16.1965L370.495 0.0625L368.163 0.0625L368.163 16.1965L370.495 16.1965Z" fill="#25315E"/>
<path d="M378.871 16.1965L378.871 0.0625L376.539 0.0625L376.539 16.1965L378.871 16.1965Z" fill="#25315E"/>
<path d="M387.218 20.7939L387.218 0.0625L384.886 0.0625L384.886 20.7939L387.218 20.7939Z" fill="#25315E"/>
<path d="M395.565 16.1965L395.565 0.0625L393.233 0.0625L393.233 16.1965L395.565 16.1965Z" fill="#25315E"/>
<path d="M403.941 16.1965L403.941 0.0625L401.58 0.0625L401.58 16.1965L403.941 16.1965Z" fill="#25315E"/>
<path d="M412.288 16.1965L412.288 0.0625L409.956 0.0625L409.956 16.1965L412.288 16.1965Z" fill="#25315E"/>
<path d="M420.635 28.0224L420.635 0.0625L418.303 0.0625L418.303 28.0224L420.635 28.0224Z" fill="#25315E"/>
<path d="M429.01 16.1965L429.01 0.0625L426.65 0.0625L426.65 16.1965L429.01 16.1965Z" fill="#25315E"/>
<path d="M437.358 16.1965L437.358 0.0625L435.026 0.0625L435.026 16.1965L437.358 16.1965Z" fill="#25315E"/>
<path d="M445.705 16.1965L445.705 0.0625L443.373 0.0625L443.373 16.1965L445.705 16.1965Z" fill="#25315E"/>
<path d="M454.052 20.7939L454.052 0.0625L451.692 0.0625L451.692 20.7939L454.052 20.7939Z" fill="#25315E"/>
<path d="M462.428 16.1965L462.428 0.0625L460.096 0.0625L460.096 16.1965L462.428 16.1965Z" fill="#25315E"/>
<path d="M470.775 16.1965L470.775 0.0625L468.443 0.0625L468.443 16.1965L470.775 16.1965Z" fill="#25315E"/>
<path d="M479.122 16.1965L479.122 0.0625L476.762 0.0625L476.762 16.1965L479.122 16.1965Z" fill="#25315E"/>
<path d="M487.498 28.0224L487.498 0.0625L485.166 0.0625L485.166 28.0224L487.498 28.0224Z" fill="#25315E"/>
<path d="M495.845 16.1965L495.845 0.0625L493.513 0.0625L493.513 16.1965L495.845 16.1965Z" fill="#25315E"/>
<path d="M504.192 16.1965L504.192 0.0625L501.831 0.0625L501.831 16.1965L504.192 16.1965Z" fill="#25315E"/>
<path d="M512.539 16.1965L512.539 0.0625L510.207 0.0625L510.207 16.1965L512.539 16.1965Z" fill="#25315E"/>
<path d="M520.915 20.7939L520.915 0.0625L518.583 0.0625L518.583 20.7939L520.915 20.7939Z" fill="#25315E"/>
<path d="M529.262 16.1965L529.262 0.0625L526.93 0.0625L526.93 16.1965L529.262 16.1965Z" fill="#25315E"/>
<path d="M537.609 16.1965L537.609 0.0625L535.249 0.0625L535.249 16.1965L537.609 16.1965Z" fill="#25315E"/>
<path d="M545.985 16.1965L545.985 0.0625L543.624 0.0625L543.624 16.1965L545.985 16.1965Z" fill="#25315E"/>
<path d="M554.332 28.0224L554.332 0.0625L552 0.0625L552 28.0224L554.332 28.0224Z" fill="#25315E"/>
<path d="M562.679 16.1965L562.679 0.0625L560.318 0.0625L560.318 16.1965L562.679 16.1965Z" fill="#25315E"/>
<path d="M571.026 16.1965L571.026 0.0625L568.694 0.0625L568.694 16.1965L571.026 16.1965Z" fill="#25315E"/>
<path d="M579.402 16.1965L579.402 0.0625L577.041 0.0625L577.041 16.1965L579.402 16.1965Z" fill="#25315E"/>
<path d="M587.749 20.7939L587.749 0.0625L585.389 0.0625L585.389 20.7939L587.749 20.7939Z" fill="#25315E"/>
<path d="M596.096 16.1965L596.096 0.0625L593.764 0.0625L593.764 16.1965L596.096 16.1965Z" fill="#25315E"/>
<path d="M604.472 16.1965L604.472 0.0625L602.111 0.0625L602.111 16.1965L604.472 16.1965Z" fill="#25315E"/>
<path d="M612.819 16.1965L612.819 0.0625L610.487 0.0625L610.487 16.1965L612.819 16.1965Z" fill="#25315E"/>
<path d="M621.166 28.0224L621.166 0.0625L618.834 0.0625L618.834 28.0224L621.166 28.0224Z" fill="#25315E"/>
<path d="M629.542 16.1965L629.542 0.0625L627.182 0.0625L627.182 16.1965L629.542 16.1965Z" fill="#25315E"/>
<path d="M637.889 16.1965L637.889 0.0625L635.557 0.0625L635.557 16.1965L637.889 16.1965Z" fill="#25315E"/>
<path d="M646.236 16.1965L646.236 0.0625L643.904 0.0625L643.904 16.1965L646.236 16.1965Z" fill="#25315E"/>
<path d="M654.583 20.7939L654.583 0.0625L652.251 0.0625L652.251 20.7939L654.583 20.7939Z" fill="#25315E"/>
<path d="M662.958 16.1965L662.958 0.0625L660.598 0.0625L660.598 16.1965L662.958 16.1965Z" fill="#25315E"/>
<path d="M671.306 16.1965L671.306 0.0625L668.974 0.0625L668.974 16.1965L671.306 16.1965Z" fill="#25315E"/>
<path d="M679.653 16.1965L679.653 0.0625L677.321 0.0625L677.321 16.1965L679.653 16.1965Z" fill="#25315E"/>
<path d="M688.029 28.0224L688.029 0.0625L685.697 0.0625L685.697 28.0224L688.029 28.0224Z" fill="#25315E"/>
<path d="M696.376 16.1965L696.376 0.0625L694.016 0.0625L694.016 16.1965L696.376 16.1965Z" fill="#25315E"/>
<path d="M704.723 16.1965L704.723 0.0625L702.391 0.0625L702.391 16.1965L704.723 16.1965Z" fill="#25315E"/>
<path d="M713.099 16.1965L713.099 0.0625L710.767 0.0625L710.767 16.1965L713.099 16.1965Z" fill="#25315E"/>
<path d="M721.446 20.7939L721.446 0.0625L719.114 0.0625L719.114 20.7939L721.446 20.7939Z" fill="#25315E"/>
<path d="M729.793 16.1965L729.793 0.0625L727.433 0.0625L727.433 16.1965L729.793 16.1965Z" fill="#25315E"/>
<path d="M738.14 16.1965L738.14 0.0625L735.808 0.0625L735.808 16.1965L738.14 16.1965Z" fill="#25315E"/>
<path d="M746.516 16.1965L746.516 0.0625L744.184 0.0625L744.184 16.1965L746.516 16.1965Z" fill="#25315E"/>
<path d="M754.863 28.0224L754.863 0.0625L752.531 0.0625L752.531 28.0224L754.863 28.0224Z" fill="#25315E"/>
<path d="M763.21 16.1965L763.21 0.0625L760.849 0.0625L760.849 16.1965L763.21 16.1965Z" fill="#25315E"/>
<path d="M771.586 16.1965L771.586 0.0625L769.254 0.0625L769.254 16.1965L771.586 16.1965Z" fill="#25315E"/>
<path d="M779.933 16.1965L779.933 0.0625L777.601 0.0625L777.601 16.1965L779.933 16.1965Z" fill="#25315E"/>
<path d="M788.28 20.7939L788.28 0.0625L785.948 0.0625L785.948 20.7939L788.28 20.7939Z" fill="#25315E"/>
<path d="M796.627 16.1965L796.627 0.0625L794.267 0.0625L794.267 16.1965L796.627 16.1965Z" fill="#25315E"/>
<path d="M805.003 16.1965L805.003 0.0625L802.671 0.0625L802.671 16.1965L805.003 16.1965Z" fill="#25315E"/>
<path d="M813.35 16.1965L813.35 0.0625L811.018 0.0625L811.018 16.1965L813.35 16.1965Z" fill="#25315E"/>
<path d="M821.697 28.0224L821.697 0.0625L819.365 0.0625L819.365 28.0224L821.697 28.0224Z" fill="#25315E"/>
<path d="M830.073 16.1965L830.073 0.0625L827.712 0.0625L827.712 16.1965L830.073 16.1965Z" fill="#25315E"/>
<path d="M838.42 16.1965L838.42 0.0625L836.088 0.0625L836.088 16.1965L838.42 16.1965Z" fill="#25315E"/>
<path d="M846.767 16.1965L846.767 0.0625L844.435 0.0625L844.435 16.1965L846.767 16.1965Z" fill="#25315E"/>
<path d="M855.143 20.7939L855.143 0.0625L852.782 0.0625L852.782 20.7939L855.143 20.7939Z" fill="#25315E"/>
<path d="M863.49 16.1965L863.49 0.0625L861.129 0.0625L861.129 16.1965L863.49 16.1965Z" fill="#25315E"/>
<path d="M871.837 16.1965L871.837 0.0625L869.505 0.0625L869.505 16.1965L871.837 16.1965Z" fill="#25315E"/>
<path d="M880.184 16.1965L880.184 0.0625L877.852 0.0625L877.852 16.1965L880.184 16.1965Z" fill="#25315E"/>
<path d="M888.56 28.0224L888.56 0.0625L886.228 0.0625L886.228 28.0224L888.56 28.0224Z" fill="#25315E"/>
<path d="M896.907 16.1965L896.907 0.0625L894.547 0.0625L894.547 16.1965L896.907 16.1965Z" fill="#25315E"/>
<path d="M905.254 16.1965L905.254 0.0625L902.922 0.0625L902.922 16.1965L905.254 16.1965Z" fill="#25315E"/>
<path d="M913.63 16.1965L913.63 0.0625L911.298 0.0625L911.298 16.1965L913.63 16.1965Z" fill="#25315E"/>
<path d="M921.977 20.7939L921.977 0.0625L919.645 0.0625L919.645 20.7939L921.977 20.7939Z" fill="#25315E"/>
<path d="M930.324 16.1965L930.324 0.0625L927.964 0.0625L927.964 16.1965L930.324 16.1965Z" fill="#25315E"/>
<path d="M938.699 16.1965L938.699 0.0625L936.368 0.0625L936.368 16.1965L938.699 16.1965Z" fill="#25315E"/>
<path d="M947.047 16.1965L947.047 0.0625L944.715 0.0625L944.715 16.1965L947.047 16.1965Z" fill="#25315E"/>
<path d="M955.394 28.0224L955.394 0.0625L953.062 0.0625L953.062 28.0224L955.394 28.0224Z" fill="#25315E"/>
<path d="M963.741 16.1965L963.741 0.0625L961.381 0.0625L961.381 16.1965L963.741 16.1965Z" fill="#25315E"/>
<path d="M972.117 16.1965L972.117 0.0625L969.785 0.0625L969.785 16.1965L972.117 16.1965Z" fill="#25315E"/>
<path d="M980.464 16.1965L980.464 0.0625L978.132 0.0625L978.132 16.1965L980.464 16.1965Z" fill="#25315E"/>
<path d="M988.811 20.7939L988.811 0.0625L986.479 0.0625L986.479 20.7939L988.811 20.7939Z" fill="#25315E"/>
<path d="M997.187 16.1965L997.187 0.0625L994.826 0.0625L994.826 16.1965L997.187 16.1965Z" fill="#25315E"/>
<path d="M1005.53 16.1965L1005.53 0.0625L1003.2 0.0625L1003.2 16.1965L1005.53 16.1965Z" fill="#25315E"/>
<path d="M1013.88 16.1965L1013.88 0.0625L1011.55 0.0625L1011.55 16.1965L1013.88 16.1965Z" fill="#25315E"/>
<path d="M1022.23 28.0224L1022.23 0.0625L1019.9 0.0625L1019.9 28.0224L1022.23 28.0224Z" fill="#25315E"/>
<path d="M87.3564 56.006L85.3416 56.006L85.3416 43.0526C84.8523 43.5152 84.2191 43.9778 83.4132 44.4404C82.6361 44.9031 81.9164 45.25 81.2832 45.4813L81.2832 43.5152C82.4057 42.9658 83.4131 42.3297 84.2478 41.5779C85.0825 40.8262 85.6871 40.0744 86.0325 39.3516L87.3276 39.3516L87.3276 55.9771L87.3564 56.006Z" fill="#25315E"/>
<path d="M12.0315 49.2726C12.0315 47.3064 12.233 45.7451 12.636 44.5596C13.039 43.3741 13.6434 42.4489 14.4205 41.7839C15.2265 41.1477 16.205 40.8008 17.4139 40.8008C18.3062 40.8008 19.0833 40.9743 19.7453 41.3501C20.4073 41.6971 20.9542 42.2176 21.386 42.9115C21.8177 43.5765 22.1631 44.415 22.4222 45.3692C22.6812 46.3234 22.7964 47.6534 22.7964 49.2726C22.7964 51.2098 22.5948 52.7712 22.1919 53.9856C21.7889 55.1711 21.2133 56.0963 20.4074 56.7613C19.6302 57.4264 18.6228 57.7444 17.4139 57.7444C15.8308 57.7444 14.5932 57.1661 13.6721 56.0385C12.5784 54.6506 12.0315 52.4242 12.0315 49.3015L12.0315 49.2726ZM14.1039 49.2726C14.1039 51.9905 14.4205 53.8121 15.0538 54.7084C15.687 55.6048 16.4641 56.0674 17.3852 56.0674C18.3062 56.0674 19.1121 55.6048 19.7166 54.7084C20.3498 53.8121 20.6664 51.9905 20.6664 49.2726C20.6664 46.5547 20.3498 44.7331 19.7166 43.8368C19.0834 42.9404 18.3062 42.5067 17.3564 42.5067C16.4065 42.5067 15.687 42.9115 15.1401 43.6922C14.4493 44.7042 14.1039 46.5547 14.1039 49.2726Z" fill="#25315E"/>
<path d="M156.695 54.0399L156.695 56.006L145.786 56.006C145.786 55.5145 145.843 55.0519 146.016 54.5893C146.304 53.8375 146.736 53.1146 147.34 52.3918C147.945 51.6689 148.837 50.8304 149.988 49.8763C151.773 48.4017 152.982 47.2162 153.615 46.3777C154.248 45.5103 154.565 44.7007 154.565 43.92C154.565 43.1104 154.277 42.4454 153.701 41.8671C153.125 41.2888 152.377 41.0286 151.456 41.0286C150.477 41.0286 149.7 41.3177 149.125 41.896C148.549 42.4743 148.232 43.2839 148.232 44.3248L146.16 44.1224C146.304 42.561 146.822 41.3755 147.772 40.566C148.693 39.7564 149.959 39.3516 151.514 39.3516C153.068 39.3516 154.334 39.7853 155.255 40.6816C156.176 41.5779 156.637 42.6478 156.637 43.9489C156.637 44.6139 156.493 45.25 156.234 45.9151C155.975 46.5512 155.514 47.2162 154.881 47.939C154.248 48.633 153.212 49.616 151.773 50.8593C150.564 51.8713 149.787 52.5653 149.441 52.9412C149.096 53.317 148.808 53.664 148.578 54.0399L156.666 54.0399L156.695 54.0399Z" fill="#25315E"/>
<path d="M212.793 51.6408L214.807 51.3806C215.038 52.5371 215.441 53.3756 215.988 53.8672C216.563 54.3876 217.225 54.6189 218.031 54.6189C218.981 54.6189 219.787 54.3009 220.449 53.6359C221.111 52.9708 221.427 52.1612 221.427 51.1782C221.427 50.1951 221.111 49.4722 220.506 48.865C219.902 48.2578 219.125 47.9687 218.204 47.9687C217.83 47.9687 217.34 48.0555 216.765 48.2L216.995 46.4074C216.995 46.4074 217.254 46.4074 217.312 46.4074C218.175 46.4074 218.952 46.176 219.643 45.7423C220.334 45.2797 220.679 44.5858 220.679 43.6605C220.679 42.9088 220.42 42.3016 219.931 41.81C219.441 41.3185 218.779 41.0872 217.974 41.0872C217.168 41.0872 216.534 41.3474 216.016 41.8389C215.498 42.3305 215.153 43.0822 215.009 44.0653L212.994 43.7183C213.253 42.3594 213.8 41.2896 214.692 40.5378C215.556 39.786 216.65 39.4102 217.974 39.4102C218.866 39.4102 219.7 39.6126 220.449 39.9884C221.197 40.3643 221.773 40.9137 222.176 41.5787C222.579 42.2437 222.78 42.9666 222.78 43.7183C222.78 44.4412 222.579 45.0773 222.205 45.6845C221.83 46.2628 221.255 46.7254 220.506 47.0724C221.485 47.3037 222.233 47.7663 222.78 48.4892C223.327 49.212 223.586 50.0794 223.586 51.1493C223.586 52.595 223.068 53.8093 222.003 54.8213C220.967 55.8333 219.643 56.3249 218.031 56.3249C216.592 56.3249 215.383 55.8912 214.433 55.0237C213.483 54.1563 212.936 53.0287 212.793 51.6697L212.793 51.6408Z" fill="#25315E"/>
<path d="M286.563 56.0076L286.563 52.0464L279.425 52.0464L279.425 50.1959L286.938 39.4688L288.578 39.4688L288.578 50.1959L290.794 50.1959L290.794 52.0464L288.578 52.0464L288.578 56.0076L286.563 56.0076ZM286.563 50.1669L286.563 42.7071L281.411 50.1669L286.563 50.1669Z" fill="#25315E"/>
<path d="M346.576 51.6689L348.706 51.4954C348.85 52.5363 349.224 53.317 349.8 53.8374C350.375 54.3579 351.066 54.6181 351.872 54.6181C352.851 54.6181 353.656 54.2422 354.347 53.5194C355.038 52.7965 355.355 51.8134 355.355 50.5701C355.355 49.3268 355.038 48.4883 354.376 47.8233C353.714 47.1583 352.879 46.8113 351.843 46.8113C351.181 46.8113 350.606 46.9559 350.087 47.245C349.569 47.5342 349.138 47.939 348.85 48.4016L346.95 48.1413L348.533 39.6406L356.736 39.6406L356.736 41.5779L350.145 41.5779L349.253 46.0306C350.231 45.3367 351.267 44.9897 352.361 44.9897C353.8 44.9897 355.009 45.4813 356.017 46.4933C356.995 47.5052 357.513 48.7775 357.513 50.3677C357.513 51.958 357.082 53.1724 356.218 54.2422C355.153 55.5723 353.714 56.2662 351.901 56.2662C350.404 56.2662 349.166 55.8325 348.216 54.994C347.267 54.1555 346.72 53.0278 346.605 51.64L346.576 51.6689Z" fill="#25315E"/>
<path d="M424.117 43.4886L422.102 43.6332C421.93 42.8236 421.671 42.2453 421.325 41.8983C420.778 41.3201 420.088 41.0309 419.31 41.0309C418.677 41.0309 418.102 41.2044 417.612 41.5803C416.979 42.0429 416.461 42.7368 416.116 43.6332C415.741 44.5295 415.54 45.8017 415.54 47.4498C416.029 46.6981 416.634 46.1487 417.324 45.8017C418.015 45.4548 418.764 45.2524 419.541 45.2524C420.893 45.2524 422.045 45.7439 422.995 46.7559C423.945 47.739 424.405 49.0401 424.405 50.6304C424.405 51.6713 424.175 52.6254 423.743 53.5218C423.283 54.4181 422.678 55.0831 421.901 55.5747C421.124 56.0373 420.232 56.2975 419.253 56.2975C417.555 56.2975 416.202 55.6614 415.137 54.4181C414.072 53.1748 413.554 51.1219 413.554 48.2594C413.554 45.05 414.129 42.7368 415.31 41.2911C416.346 40.0189 417.727 39.3828 419.454 39.3828C420.75 39.3828 421.815 39.7587 422.649 40.4815C423.484 41.2044 423.973 42.2164 424.146 43.5175L424.117 43.4886ZM415.856 50.6304C415.856 51.3243 416 51.9893 416.288 52.6544C416.576 53.2905 417.008 53.782 417.526 54.129C418.044 54.4759 418.62 54.6205 419.195 54.6205C420.059 54.6205 420.778 54.2735 421.412 53.5796C422.016 52.8857 422.333 51.9315 422.333 50.746C422.333 49.5606 422.016 48.6931 421.412 48.0281C420.807 47.3631 420.03 47.045 419.109 47.045C418.188 47.045 417.411 47.3631 416.778 48.0281C416.144 48.6931 415.828 49.5606 415.828 50.6304L415.856 50.6304Z" fill="#25315E"/>
<path d="M480.561 41.6068L480.561 39.6406L491.239 39.6406L491.239 41.2309C490.203 42.3585 489.167 43.8332 488.131 45.7126C487.095 47.5631 486.317 49.4714 485.742 51.4376C485.339 52.8254 485.08 54.329 484.965 55.9771L482.892 55.9771C482.892 54.6759 483.18 53.0856 483.669 51.2641C484.159 49.4136 484.849 47.6498 485.771 45.915C486.692 44.209 487.641 42.7633 488.678 41.5779L480.618 41.5779L480.561 41.6068Z" fill="#25315E"/>
<path d="M550.532 47.0138C549.698 46.6957 549.064 46.262 548.661 45.6837C548.258 45.1055 548.057 44.4115 548.057 43.6308C548.057 42.4164 548.489 41.4045 549.352 40.5949C550.216 39.7853 551.367 39.3516 552.806 39.3516C554.245 39.3516 555.397 39.7564 556.289 40.6238C557.152 41.4623 557.613 42.4743 557.613 43.6887C557.613 44.4693 557.411 45.1344 557.008 45.6837C556.606 46.262 556.001 46.6957 555.195 47.0138C556.203 47.3318 556.98 47.8812 557.498 48.604C558.016 49.3269 558.304 50.2232 558.304 51.2352C558.304 52.652 557.814 53.8375 556.807 54.7917C555.8 55.7458 554.504 56.2374 552.864 56.2374C551.223 56.2374 549.928 55.7458 548.92 54.7917C547.913 53.8086 547.424 52.6231 547.424 51.1774C547.424 50.1076 547.683 49.2112 548.23 48.4595C548.777 47.7366 549.554 47.2451 550.561 46.9849L550.532 47.0138ZM550.129 43.573C550.129 44.3537 550.388 44.9898 550.878 45.4813C551.367 45.9729 552.029 46.2331 552.835 46.2331C553.641 46.2331 554.245 45.9729 554.763 45.4813C555.253 44.9898 555.512 44.3826 555.512 43.6598C555.512 42.9369 555.253 42.3008 554.735 41.7803C554.217 41.2599 553.583 41.0286 552.806 41.0286C552.029 41.0286 551.396 41.2888 550.878 41.7803C550.36 42.2719 550.101 42.8791 550.101 43.573L550.129 43.573ZM549.467 51.2063C549.467 51.7846 549.611 52.334 549.87 52.8833C550.129 53.4327 550.561 53.8375 551.079 54.1555C551.626 54.4447 552.202 54.5893 552.835 54.5893C553.814 54.5893 554.591 54.2712 555.224 53.664C555.857 53.0279 556.174 52.2472 556.174 51.2931C556.174 50.3389 555.857 49.5004 555.195 48.8643C554.533 48.2282 553.727 47.9101 552.749 47.9101C551.77 47.9101 551.022 48.2282 550.388 48.8643C549.755 49.5004 549.439 50.2811 549.439 51.2352L549.467 51.2063Z" fill="#25315E"/>
<path d="M614.661 52.1621L616.618 51.9886C616.79 52.9138 617.107 53.5788 617.568 53.9836C618.028 54.3884 618.633 54.5908 619.352 54.5908C619.985 54.5908 620.532 54.4463 620.993 54.1571C621.453 53.868 621.856 53.4921 622.144 53.0006C622.432 52.509 622.691 51.8729 622.892 51.0633C623.094 50.2537 623.209 49.4152 623.209 48.5767C623.209 48.49 623.209 48.3454 623.209 48.1719C622.806 48.808 622.259 49.3574 621.54 49.7333C620.849 50.1381 620.072 50.3405 619.266 50.3405C617.913 50.3405 616.762 49.8489 615.812 48.8369C614.862 47.8539 614.401 46.5238 614.401 44.9046C614.401 43.2854 614.891 41.8687 615.869 40.8567C616.848 39.8447 618.086 39.3242 619.582 39.3242C620.647 39.3242 621.626 39.6134 622.518 40.1916C623.411 40.7699 624.073 41.6084 624.533 42.6782C624.994 43.7481 625.224 45.3094 625.224 47.3334C625.224 49.3574 624.994 51.1211 624.533 52.3934C624.073 53.6656 623.382 54.5908 622.49 55.2559C621.597 55.9209 620.532 56.2389 619.323 56.2389C618.028 56.2389 616.992 55.892 616.157 55.1691C615.351 54.4463 614.862 53.4343 614.689 52.1331L614.661 52.1621ZM622.95 44.8468C622.95 43.6902 622.633 42.765 622.029 42.0711C621.425 41.3771 620.676 41.0301 619.784 41.0301C618.892 41.0301 618.114 41.406 617.424 42.1289C616.762 42.8517 616.416 43.8348 616.416 44.9914C616.416 46.0323 616.733 46.8997 617.366 47.5647C617.999 48.2297 618.776 48.5478 619.698 48.5478C620.619 48.5478 621.396 48.2297 622 47.5647C622.605 46.8997 622.892 46.0034 622.892 44.8179L622.95 44.8468Z" fill="#25315E"/>
<path d="M681.754 56.006L679.739 56.006L679.739 43.0526C679.25 43.5152 678.616 43.9778 677.81 44.4404C677.033 44.9031 676.314 45.25 675.68 45.4813L675.68 43.5152C676.803 42.9658 677.81 42.3297 678.645 41.5779C679.48 40.8262 680.084 40.0744 680.43 39.3516L681.725 39.3516L681.725 55.9771L681.754 56.006Z" fill="#25315E"/>
<path d="M686.963 47.8234C686.963 45.8572 687.165 44.2959 687.568 43.1104C687.971 41.9249 688.575 40.9997 689.352 40.3346C690.13 39.6985 691.137 39.3516 692.346 39.3516C693.238 39.3516 694.015 39.525 694.677 39.9009C695.339 40.2479 695.886 40.7683 696.318 41.4623C696.75 42.1273 697.095 42.9658 697.354 43.92C697.613 44.8741 697.728 46.2042 697.728 47.8234C697.728 49.7606 697.527 51.322 697.124 52.5364C696.721 53.7507 696.145 54.6471 695.339 55.3121C694.562 55.9771 693.555 56.2952 692.346 56.2952C690.763 56.2952 689.496 55.7169 688.604 54.5893C687.51 53.2014 686.963 50.975 686.963 47.8523L686.963 47.8234ZM689.036 47.8234C689.036 50.5413 689.352 52.3629 689.986 53.2592C690.619 54.1555 691.396 54.6182 692.317 54.6182C693.238 54.6182 694.015 54.1555 694.648 53.2592C695.282 52.3629 695.598 50.5413 695.598 47.8234C695.598 45.1055 695.282 43.2839 694.648 42.3875C694.015 41.4912 693.238 41.0575 692.288 41.0575C691.338 41.0575 690.619 41.4623 690.072 42.243C689.381 43.255 689.036 45.1055 689.036 47.8234Z" fill="#25315E"/>
<path d="M751.121 56.006L749.106 56.006L749.106 43.0526C748.616 43.5152 747.983 43.9778 747.177 44.4404C746.4 44.9031 745.681 45.25 745.047 45.4813L745.047 43.5152C746.17 42.9658 747.177 42.3297 748.012 41.5779C748.847 40.8262 749.451 40.0744 749.797 39.3516L751.092 39.3516L751.092 55.9771L751.121 56.006Z" fill="#25315E"/>
<path d="M762.202 56.006L760.187 56.006L760.187 43.0526C759.698 43.5152 759.065 43.9778 758.259 44.4404C757.482 44.9031 756.762 45.25 756.129 45.4813L756.129 43.5152C757.251 42.9658 758.259 42.3297 759.094 41.5779C759.928 40.8262 760.533 40.0744 760.878 39.3516L762.173 39.3516L762.173 55.9771L762.202 56.006Z" fill="#25315E"/>
<path d="M815.681 56.006L813.666 56.006L813.666 43.0526C813.177 43.5152 812.544 43.9778 811.738 44.4404C810.961 44.9031 810.241 45.25 809.608 45.4813L809.608 43.5152C810.73 42.9658 811.738 42.3297 812.573 41.5779C813.407 40.8262 814.012 40.0744 814.357 39.3516L815.652 39.3516L815.652 55.9771L815.681 56.006Z" fill="#25315E"/>
<path d="M831.512 54.0399L831.512 56.006L820.603 56.006C820.603 55.5145 820.661 55.0519 820.833 54.5893C821.121 53.8375 821.553 53.1146 822.157 52.3918C822.762 51.6689 823.654 50.8304 824.805 49.8763C826.59 48.4017 827.799 47.2162 828.432 46.3777C829.065 45.5103 829.382 44.7007 829.382 43.92C829.382 43.1104 829.094 42.4454 828.518 41.8671C827.943 41.2888 827.194 41.0286 826.273 41.0286C825.295 41.0286 824.517 41.3177 823.942 41.896C823.366 42.4743 823.05 43.2839 823.05 44.3248L820.977 44.1224C821.121 42.561 821.668 41.3755 822.589 40.566C823.51 39.7564 824.776 39.3516 826.331 39.3516C827.885 39.3516 829.152 39.7853 830.073 40.6816C830.994 41.549 831.454 42.6478 831.454 43.9489C831.454 44.6139 831.31 45.25 831.051 45.9151C830.792 46.5512 830.332 47.2162 829.698 47.939C829.065 48.633 828.029 49.616 826.59 50.8593C825.381 51.8713 824.604 52.5653 824.258 52.9412C823.913 53.317 823.625 53.664 823.395 54.0399L831.483 54.0399L831.512 54.0399Z" fill="#25315E"/>
<path d="M882.544 56.006L880.529 56.006L880.529 43.0526C880.04 43.5152 879.406 43.9778 878.6 44.4404C877.823 44.9031 877.104 45.25 876.47 45.4813L876.47 43.5152C877.593 42.9658 878.6 42.3297 879.435 41.5779C880.27 40.8262 880.874 40.0744 881.22 39.3516L882.515 39.3516L882.515 55.9771L882.544 56.006Z" fill="#25315E"/>
<path d="M887.725 51.6408L889.74 51.3806C889.97 52.5371 890.373 53.3756 890.92 53.8672C891.466 54.3876 892.157 54.6189 892.963 54.6189C893.913 54.6189 894.719 54.3009 895.381 53.6359C896.043 52.9708 896.36 52.1612 896.36 51.1782C896.36 50.1951 896.043 49.4722 895.439 48.865C894.834 48.2578 894.057 47.9687 893.136 47.9687C892.762 47.9687 892.272 48.0555 891.697 48.2L891.927 46.4074C891.927 46.4074 892.157 46.4074 892.244 46.4074C893.107 46.4074 893.884 46.176 894.575 45.7423C895.266 45.2797 895.611 44.5858 895.611 43.6605C895.611 42.9088 895.352 42.3016 894.863 41.81C894.374 41.3185 893.712 41.0872 892.906 41.0872C892.1 41.0872 891.466 41.3474 890.948 41.8389C890.43 42.3305 890.085 43.0822 889.941 44.0653L887.926 43.7183C888.185 42.3594 888.732 41.2896 889.624 40.5378C890.488 39.786 891.582 39.4102 892.906 39.4102C893.798 39.4102 894.633 39.6126 895.381 39.9884C896.129 40.3643 896.705 40.9137 897.108 41.5787C897.511 42.2437 897.712 42.9666 897.712 43.7183C897.712 44.4412 897.511 45.0773 897.137 45.6845C896.763 46.2628 896.187 46.7254 895.439 47.0724C896.417 47.3037 897.166 47.7663 897.712 48.4892C898.259 49.212 898.518 50.0794 898.518 51.1493C898.518 52.595 898 53.8093 896.935 54.8213C895.899 55.8333 894.546 56.3249 892.963 56.3249C891.524 56.3249 890.315 55.8912 889.365 55.0237C888.415 54.1563 887.869 53.0287 887.725 51.6697L887.725 51.6408Z" fill="#25315E"/>
<path d="M949.493 56.006L947.478 56.006L947.478 43.0526C946.989 43.5152 946.356 43.9778 945.55 44.4404C944.773 44.9031 944.053 45.25 943.42 45.4813L943.42 43.5152C944.542 42.9658 945.55 42.3297 946.384 41.5779C947.219 40.8262 947.823 40.0744 948.169 39.3516L949.464 39.3516L949.464 55.9771L949.493 56.006Z" fill="#25315E"/>
<path d="M961.179 56.0076L961.179 52.0464L954.041 52.0464L954.041 50.1959L961.553 39.4688L963.194 39.4688L963.194 50.1959L965.41 50.1959L965.41 52.0464L963.194 52.0464L963.194 56.0076L961.179 56.0076ZM961.179 50.1669L961.179 42.7071L956.027 50.1669L961.179 50.1669Z" fill="#25315E"/>
<path d="M1016.33 56.006L1014.31 56.006L1014.31 43.0526C1013.82 43.5152 1013.19 43.9778 1012.38 44.4404C1011.61 44.9031 1010.89 45.25 1010.25 45.4813L1010.25 43.5152C1011.38 42.9658 1012.38 42.3297 1013.22 41.5779C1014.05 40.8262 1014.66 40.0744 1015 39.3516L1016.3 39.3516L1016.3 55.9771L1016.33 56.006Z" fill="#25315E"/>
<path d="M1021.51 51.6689L1023.64 51.4954C1023.78 52.5363 1024.16 53.317 1024.73 53.8374C1025.31 54.3579 1026 54.6181 1026.8 54.6181C1027.78 54.6181 1028.59 54.2422 1029.28 53.5194C1029.94 52.7965 1030.29 51.8134 1030.29 50.5701C1030.29 49.3268 1029.97 48.4883 1029.31 47.8233C1028.65 47.1583 1027.81 46.8113 1026.78 46.8113C1026.11 46.8113 1025.54 46.9559 1025.02 47.245C1024.5 47.5342 1024.07 47.939 1023.78 48.4016L1021.88 48.1413L1023.47 39.6406L1031.67 39.6406L1031.67 41.5779L1025.08 41.5779L1024.18 46.0306C1025.16 45.3367 1026.2 44.9897 1027.29 44.9897C1028.73 44.9897 1029.94 45.4813 1030.95 46.4933C1031.93 47.5052 1032.45 48.7775 1032.45 50.3677C1032.45 51.958 1032.01 53.1724 1031.15 54.2422C1030.09 55.5723 1028.65 56.2662 1026.83 56.2662C1025.34 56.2662 1024.1 55.8325 1023.15 54.994C1022.2 54.1555 1021.65 53.0278 1021.54 51.64L1021.51 51.6689Z" fill="#25315E"/>
</svg>
