<svg width="940" height="194" viewBox="0 0 940 194" fill="none" xmlns="http://www.w3.org/2000/svg">
<g clip-path="url(#clip0_1747_27715)">
<rect x="1.5" y="1.5" width="937" height="191" fill="#DAE5F0" fill-opacity="0.6" stroke="#DAE5F0" stroke-width="3"/>
<path d="M143.574 91.8741L140.263 91.8741L140.263 70.5983C139.459 71.3582 138.418 72.118 137.093 72.8779C135.816 73.6377 134.633 74.2076 133.593 74.5875L133.593 71.3582C135.438 70.4559 137.093 69.4111 138.465 68.1763C139.837 66.9415 140.831 65.7068 141.398 64.5195L143.527 64.5195L143.527 91.8266L143.574 91.8741Z" fill="#25315E"/>
<path d="M19.7743 80.8132C19.7743 77.5838 20.1055 75.0193 20.7678 73.0722C21.4301 71.1251 22.4235 69.6054 23.7007 68.5131C25.0253 67.4683 26.6336 66.8984 28.6205 66.8984C30.0869 66.8984 31.3642 67.1834 32.4522 67.8008C33.5403 68.3706 34.4391 69.2255 35.1487 70.3652C35.8583 71.4575 36.426 72.8348 36.8518 74.4019C37.2775 75.9691 37.4668 78.1537 37.4668 80.8132C37.4668 83.995 37.1356 86.5595 36.4733 88.5541C35.811 90.5012 34.8649 92.0209 33.5403 93.1132C32.2631 94.2055 30.6073 94.7279 28.6205 94.7279C26.0186 94.7279 23.9845 93.7781 22.4707 91.926C20.6731 89.6464 19.7743 85.9896 19.7743 80.8607L19.7743 80.8132ZM23.1803 80.8132C23.1803 85.2773 23.7007 88.2692 24.7415 89.7414C25.7822 91.2136 27.0595 91.9734 28.5732 91.9734C30.087 91.9734 31.4116 91.2136 32.405 89.7414C33.4458 88.2692 33.9661 85.2773 33.9661 80.8132C33.9661 76.3491 33.4458 73.3571 32.405 71.8849C31.3643 70.4127 30.087 69.7004 28.5259 69.7004C26.9648 69.7004 25.7822 70.3652 24.8834 71.6475C23.748 73.3097 23.1803 76.3491 23.1803 80.8132Z" fill="#25315E"/>
<path d="M257.534 88.6447L257.534 91.8741L239.605 91.8741C239.605 91.0668 239.7 90.3069 239.984 89.5471C240.457 88.3123 241.166 87.125 242.16 85.9378C243.153 84.7505 244.62 83.3733 246.512 81.8061C249.445 79.3841 251.432 77.437 252.472 76.0597C253.513 74.635 254.034 73.3053 254.034 72.023C254.034 70.6933 253.56 69.601 252.614 68.6512C251.668 67.7014 250.438 67.274 248.924 67.274C247.316 67.274 246.039 67.7489 245.093 68.6987C244.147 69.6485 243.626 70.9782 243.626 72.6879L240.22 72.3555C240.457 69.791 241.308 67.8439 242.869 66.5141C244.383 65.1844 246.465 64.5195 249.019 64.5195C251.574 64.5195 253.655 65.2319 255.169 66.7041C256.683 68.1763 257.44 69.9335 257.44 72.0705C257.44 73.1628 257.203 74.2076 256.777 75.2999C256.352 76.3447 255.595 77.437 254.554 78.6242C253.513 79.764 251.81 81.3787 249.445 83.4208C247.458 85.0829 246.181 86.2227 245.613 86.8401C245.045 87.4575 244.572 88.0274 244.194 88.6447L257.487 88.6447L257.534 88.6447Z" fill="#25315E"/>
<path d="M349.733 84.7057L353.045 84.2783C353.423 86.1779 354.086 87.5551 354.984 88.3625C355.931 89.2173 357.019 89.5972 358.343 89.5972C359.904 89.5972 361.229 89.0748 362.317 87.9825C363.405 86.8903 363.925 85.5605 363.925 83.9458C363.925 82.3312 363.405 81.1439 362.411 80.1466C361.418 79.1493 360.141 78.6744 358.627 78.6744C358.012 78.6744 357.208 78.8169 356.262 79.0543L356.64 76.1099C356.64 76.1099 357.066 76.1099 357.16 76.1099C358.58 76.1099 359.857 75.73 360.992 75.0176C362.128 74.2578 362.695 73.118 362.695 71.5983C362.695 70.3635 362.27 69.3662 361.465 68.5589C360.661 67.7516 359.573 67.3716 358.249 67.3716C356.924 67.3716 355.883 67.7991 355.032 68.6064C354.18 69.4137 353.613 70.6485 353.376 72.2632L350.065 71.6933C350.49 69.4612 351.389 67.7041 352.856 66.4693C354.275 65.2346 356.072 64.6172 358.249 64.6172C359.715 64.6172 361.087 64.9496 362.317 65.567C363.547 66.1844 364.493 67.0867 365.155 68.179C365.817 69.2713 366.149 70.4585 366.149 71.6933C366.149 72.8805 365.818 73.9253 365.203 74.9226C364.588 75.8725 363.641 76.6323 362.411 77.2022C364.02 77.5821 365.25 78.342 366.149 79.5292C367.047 80.7165 367.473 82.1412 367.473 83.8984C367.473 86.2729 366.622 88.2675 364.871 89.9297C363.168 91.5918 360.992 92.3992 358.343 92.3992C355.978 92.3992 353.991 91.6868 352.43 90.2621C350.869 88.8374 349.97 86.9852 349.733 84.7532L349.733 84.7057Z" fill="#25315E"/>
<path d="M470.979 91.8716L470.979 85.3654L459.247 85.3654L459.247 82.326L471.594 64.707L474.29 64.707L474.29 82.326L477.933 82.326L477.933 85.3654L474.29 85.3654L474.29 91.8716L470.979 91.8716ZM470.979 82.2785L470.979 70.026L462.511 82.2785L470.979 82.2785Z" fill="#25315E"/>
<path d="M569.612 84.7522L573.112 84.4672C573.349 86.1769 573.964 87.4591 574.91 88.314C575.856 89.1688 576.991 89.5962 578.316 89.5962C579.924 89.5962 581.249 88.9788 582.384 87.7916C583.52 86.6043 584.04 84.9896 584.04 82.9475C584.04 80.9054 583.52 79.5282 582.431 78.4359C581.343 77.3436 579.972 76.7738 578.269 76.7738C577.181 76.7738 576.234 77.0112 575.383 77.4861C574.531 77.961 573.822 78.6259 573.349 79.3857L570.227 78.9583L572.828 64.9961L586.311 64.9961L586.311 68.178L575.477 68.178L574.011 75.4915C575.619 74.3517 577.322 73.7818 579.12 73.7818C581.485 73.7818 583.472 74.5892 585.128 76.2514C586.736 77.9135 587.588 80.0031 587.588 82.6151C587.588 85.2271 586.878 87.2217 585.459 88.9788C583.709 91.1634 581.343 92.3032 578.363 92.3032C575.903 92.3032 573.869 91.5908 572.308 90.2136C570.747 88.8363 569.848 86.9842 569.659 84.7047L569.612 84.7522Z" fill="#25315E"/>
<path d="M697.054 71.314L693.743 71.5514C693.459 70.2217 693.033 69.2719 692.465 68.702C691.567 67.7522 690.431 67.2773 689.154 67.2773C688.113 67.2773 687.167 67.5622 686.363 68.1796C685.322 68.9394 684.471 70.0792 683.903 71.5514C683.288 73.0236 682.957 75.1132 682.957 77.8202C683.761 76.5854 684.755 75.6831 685.89 75.1132C687.025 74.5433 688.255 74.2109 689.532 74.2109C691.756 74.2109 693.648 75.0182 695.209 76.6804C696.77 78.2951 697.527 80.4322 697.527 83.0441C697.527 84.7538 697.149 86.321 696.439 87.7932C695.682 89.2654 694.689 90.3577 693.412 91.165C692.134 91.9249 690.668 92.3523 689.059 92.3523C686.268 92.3523 684.045 91.3075 682.295 89.2654C680.544 87.2233 679.693 83.8515 679.693 79.1499C679.693 73.8785 680.639 70.0792 682.578 67.7047C684.281 65.6151 686.552 64.5703 689.39 64.5703C691.519 64.5703 693.27 65.1877 694.641 66.375C696.013 67.5622 696.818 69.2244 697.101 71.3615L697.054 71.314ZM683.477 83.0441C683.477 84.1839 683.714 85.2762 684.187 86.3685C684.66 87.4133 685.369 88.2206 686.221 88.7905C687.072 89.3604 688.019 89.5978 688.965 89.5978C690.384 89.5978 691.567 89.0279 692.607 87.8882C693.601 86.7484 694.121 85.1812 694.121 83.2341C694.121 81.287 693.601 79.8623 692.607 78.77C691.614 77.6777 690.337 77.1553 688.823 77.1553C687.309 77.1553 686.032 77.6777 684.991 78.77C683.95 79.8623 683.43 81.287 683.43 83.0441L683.477 83.0441Z" fill="#25315E"/>
<path d="M789.821 68.2255L789.821 64.9961L807.372 64.9961L807.372 67.6081C805.669 69.4602 803.966 71.8822 802.263 74.9691C800.56 78.0085 799.282 81.1429 798.336 84.3722C797.674 86.6518 797.248 89.1213 797.059 91.8283L793.653 91.8283C793.653 89.6912 794.126 87.0792 794.93 84.0873C795.735 81.0479 796.87 78.151 798.384 75.3015C799.898 72.4996 801.459 70.1251 803.162 68.178L789.916 68.178L789.821 68.2255Z" fill="#25315E"/>
<path d="M904.822 77.1045C903.45 76.5821 902.41 75.8698 901.747 74.92C901.085 73.9702 900.754 72.8304 900.754 71.5481C900.754 69.5535 901.464 67.8914 902.883 66.5616C904.302 65.2319 906.194 64.5195 908.56 64.5195C910.925 64.5195 912.817 65.1844 914.284 66.6091C915.703 67.9863 916.46 69.6485 916.46 71.6431C916.46 72.9254 916.128 74.0176 915.466 74.92C914.804 75.8698 913.81 76.5821 912.486 77.1045C914.142 77.6269 915.419 78.5292 916.27 79.7165C917.122 80.9038 917.595 82.376 917.595 84.0381C917.595 86.3652 916.791 88.3123 915.135 89.8795C913.479 91.4467 911.351 92.254 908.654 92.254C905.958 92.254 903.829 91.4467 902.173 89.8795C900.518 88.2648 899.713 86.3177 899.713 83.9432C899.713 82.186 900.139 80.7138 901.038 79.4791C901.937 78.2918 903.214 77.4844 904.87 77.057L904.822 77.1045ZM904.16 71.4531C904.16 72.7354 904.586 73.7802 905.39 74.5875C906.194 75.3949 907.282 75.8223 908.607 75.8223C909.931 75.8223 910.925 75.3949 911.776 74.5875C912.581 73.7802 913.006 72.7829 913.006 71.5956C913.006 70.4084 912.581 69.3636 911.729 68.5087C910.877 67.6539 909.837 67.274 908.56 67.274C907.282 67.274 906.242 67.7014 905.39 68.5087C904.539 69.3161 904.113 70.3134 904.113 71.4531L904.16 71.4531ZM903.072 83.9907C903.072 84.9405 903.309 85.8428 903.734 86.7451C904.16 87.6474 904.87 88.3123 905.721 88.8347C906.62 89.3096 907.566 89.5471 908.607 89.5471C910.215 89.5471 911.492 89.0246 912.533 88.0273C913.574 86.9826 914.094 85.7003 914.094 84.1331C914.094 82.5659 913.574 81.1887 912.486 80.1439C911.398 79.0991 910.073 78.5767 908.465 78.5767C906.856 78.5767 905.627 79.0991 904.586 80.1439C903.545 81.1887 903.025 82.471 903.025 84.0381L903.072 83.9907Z" fill="#25315E"/>
<path d="M142.013 45.9077L142.013 -0.015625L138.181 -0.015625L138.181 45.9077L142.013 45.9077Z" fill="#25315E"/>
<path d="M155.779 26.4841L155.779 -0.015625L151.947 -0.015625L151.947 26.4841L155.779 26.4841Z" fill="#25315E"/>
<path d="M169.498 26.4841L169.498 -0.015625L165.619 -0.015625L165.619 26.4841L169.498 26.4841Z" fill="#25315E"/>
<path d="M183.216 26.4841L183.216 -0.015625L179.385 -0.015625L179.385 26.4841L183.216 26.4841Z" fill="#25315E"/>
<path d="M196.982 34.0351L196.982 -0.015625L193.151 -0.015625L193.151 34.0351L196.982 34.0351Z" fill="#25315E"/>
<path d="M210.701 26.4841L210.701 -0.015625L206.869 -0.015625L206.869 26.4841L210.701 26.4841Z" fill="#25315E"/>
<path d="M224.42 26.4841L224.42 -0.015625L220.541 -0.015625L220.541 26.4841L224.42 26.4841Z" fill="#25315E"/>
<path d="M238.139 26.4841L238.139 -0.015625L234.307 -0.015625L234.307 26.4841L238.139 26.4841Z" fill="#25315E"/>
<path d="M251.905 45.9077L251.905 -0.015625L248.073 -0.015625L248.073 45.9077L251.905 45.9077Z" fill="#25315E"/>
<path d="M32.168 45.9077L32.168 -0.015625L28.3362 -0.015625L28.3362 45.9077L32.168 45.9077Z" fill="#25315E"/>
<path d="M45.8872 26.4841L45.8872 -0.015625L42.0081 -0.015625L42.0081 26.4841L45.8872 26.4841Z" fill="#25315E"/>
<path d="M59.6531 26.4841L59.6531 -0.015625L55.8213 -0.015625L55.8213 26.4841L59.6531 26.4841Z" fill="#25315E"/>
<path d="M73.3716 26.4841L73.3716 -0.015625L69.5398 -0.015625L69.5398 26.4841L73.3716 26.4841Z" fill="#25315E"/>
<path d="M87.0906 34.0351L87.0906 -0.015625L83.2114 -0.015625L83.2114 34.0351L87.0906 34.0351Z" fill="#25315E"/>
<path d="M100.81 26.4841L100.81 -0.015625L96.9778 -0.015625L96.9778 26.4841L100.81 26.4841Z" fill="#25315E"/>
<path d="M114.575 26.4841L114.575 -0.015625L110.743 -0.015625L110.743 26.4841L114.575 26.4841Z" fill="#25315E"/>
<path d="M128.294 26.4841L128.294 -0.015625L124.415 -0.015625L124.415 26.4841L128.294 26.4841Z" fill="#25315E"/>
<path d="M265.624 26.4841L265.624 -0.015625L261.744 -0.015625L261.744 26.4841L265.624 26.4841Z" fill="#25315E"/>
<path d="M279.342 26.4841L279.342 -0.015625L275.51 -0.015625L275.51 26.4841L279.342 26.4841Z" fill="#25315E"/>
<path d="M293.108 26.4841L293.108 -0.015625L289.276 -0.015625L289.276 26.4841L293.108 26.4841Z" fill="#25315E"/>
<path d="M306.827 34.0351L306.827 -0.015625L302.948 -0.015625L302.948 34.0351L306.827 34.0351Z" fill="#25315E"/>
<path d="M320.546 26.4841L320.546 -0.015625L316.714 -0.015625L316.714 26.4841L320.546 26.4841Z" fill="#25315E"/>
<path d="M334.265 26.4841L334.265 -0.015625L330.433 -0.015625L330.433 26.4841L334.265 26.4841Z" fill="#25315E"/>
<path d="M348.031 26.4841L348.031 -0.015625L344.152 -0.015625L344.152 26.4841L348.031 26.4841Z" fill="#25315E"/>
<path d="M361.749 45.9077L361.749 -0.015625L357.917 -0.015625L357.917 45.9077L361.749 45.9077Z" fill="#25315E"/>
<path d="M375.468 26.4841L375.468 -0.015625L371.636 -0.015625L371.636 26.4841L375.468 26.4841Z" fill="#25315E"/>
<path d="M389.234 26.4841L389.234 -0.015625L385.355 -0.015625L385.355 26.4841L389.234 26.4841Z" fill="#25315E"/>
<path d="M402.953 26.4841L402.953 -0.015625L399.074 -0.015625L399.074 26.4841L402.953 26.4841Z" fill="#25315E"/>
<path d="M416.672 34.0351L416.672 -0.015625L412.84 -0.015625L412.84 34.0351L416.672 34.0351Z" fill="#25315E"/>
<path d="M430.39 26.4841L430.39 -0.015625L426.558 -0.015625L426.558 26.4841L430.39 26.4841Z" fill="#25315E"/>
<path d="M444.156 26.4841L444.156 -0.015625L440.277 -0.015625L440.277 26.4841L444.156 26.4841Z" fill="#25315E"/>
<path d="M457.875 26.4841L457.875 -0.015625L454.043 -0.015625L454.043 26.4841L457.875 26.4841Z" fill="#25315E"/>
<path d="M471.594 45.9077L471.594 -0.015625L467.762 -0.015625L467.762 45.9077L471.594 45.9077Z" fill="#25315E"/>
<path d="M485.36 26.4841L485.36 -0.015625L481.481 -0.015625L481.481 26.4841L485.36 26.4841Z" fill="#25315E"/>
<path d="M499.079 26.4841L499.079 -0.015625L495.247 -0.015625L495.247 26.4841L499.079 26.4841Z" fill="#25315E"/>
<path d="M512.797 26.4841L512.797 -0.015625L508.965 -0.015625L508.965 26.4841L512.797 26.4841Z" fill="#25315E"/>
<path d="M526.563 34.0351L526.563 -0.015625L522.684 -0.015625L522.684 34.0351L526.563 34.0351Z" fill="#25315E"/>
<path d="M540.282 26.4841L540.282 -0.015625L536.45 -0.015625L536.45 26.4841L540.282 26.4841Z" fill="#25315E"/>
<path d="M554 26.4841L554 -0.015625L550.169 -0.015625L550.169 26.4841L554 26.4841Z" fill="#25315E"/>
<path d="M567.767 26.4841L567.767 -0.015625L563.888 -0.015625L563.888 26.4841L567.767 26.4841Z" fill="#25315E"/>
<path d="M581.486 45.9077L581.486 -0.015625L577.654 -0.015625L577.654 45.9077L581.486 45.9077Z" fill="#25315E"/>
<path d="M595.204 26.4841L595.204 -0.015625L591.372 -0.015625L591.372 26.4841L595.204 26.4841Z" fill="#25315E"/>
<path d="M608.923 26.4841L608.923 -0.015625L605.092 -0.015625L605.092 26.4841L608.923 26.4841Z" fill="#25315E"/>
<path d="M622.689 26.4841L622.689 -0.015625L618.857 -0.015625L618.857 26.4841L622.689 26.4841Z" fill="#25315E"/>
<path d="M636.408 34.0351L636.408 -0.015625L632.576 -0.015625L632.576 34.0351L636.408 34.0351Z" fill="#25315E"/>
<path d="M650.127 26.4841L650.127 -0.015625L646.295 -0.015625L646.295 26.4841L650.127 26.4841Z" fill="#25315E"/>
<path d="M663.893 26.4841L663.893 -0.015625L660.014 -0.015625L660.014 26.4841L663.893 26.4841Z" fill="#25315E"/>
<path d="M677.611 26.4841L677.611 -0.015625L673.779 -0.015625L673.779 26.4841L677.611 26.4841Z" fill="#25315E"/>
<path d="M691.33 45.9077L691.33 -0.015625L687.499 -0.015625L687.499 45.9077L691.33 45.9077Z" fill="#25315E"/>
<path d="M705.096 26.4841L705.096 -0.015625L701.217 -0.015625L701.217 26.4841L705.096 26.4841Z" fill="#25315E"/>
<path d="M718.815 26.4841L718.815 -0.015625L714.983 -0.015625L714.983 26.4841L718.815 26.4841Z" fill="#25315E"/>
<path d="M732.534 26.4841L732.534 -0.015625L728.702 -0.015625L728.702 26.4841L732.534 26.4841Z" fill="#25315E"/>
<path d="M746.252 34.0351L746.252 -0.015625L742.373 -0.015625L742.373 34.0351L746.252 34.0351Z" fill="#25315E"/>
<path d="M760.019 26.4841L760.019 -0.015625L756.187 -0.015625L756.187 26.4841L760.019 26.4841Z" fill="#25315E"/>
<path d="M773.737 26.4841L773.737 -0.015625L769.905 -0.015625L769.905 26.4841L773.737 26.4841Z" fill="#25315E"/>
<path d="M787.456 26.4841L787.456 -0.015625L783.577 -0.015625L783.577 26.4841L787.456 26.4841Z" fill="#25315E"/>
<path d="M801.222 45.9077L801.222 -0.015625L797.39 -0.015625L797.39 45.9077L801.222 45.9077Z" fill="#25315E"/>
<path d="M814.941 26.4841L814.941 -0.015625L811.109 -0.015625L811.109 26.4841L814.941 26.4841Z" fill="#25315E"/>
<path d="M828.66 26.4841L828.66 -0.015625L824.781 -0.015625L824.781 26.4841L828.66 26.4841Z" fill="#25315E"/>
<path d="M842.378 26.4841L842.378 -0.015625L838.546 -0.015625L838.546 26.4841L842.378 26.4841Z" fill="#25315E"/>
<path d="M856.144 34.0351L856.144 -0.015625L852.312 -0.015625L852.312 34.0351L856.144 34.0351Z" fill="#25315E"/>
<path d="M869.863 26.4841L869.863 -0.015625L866.031 -0.015625L866.031 26.4841L869.863 26.4841Z" fill="#25315E"/>
<path d="M883.582 26.4841L883.582 -0.015625L879.702 -0.015625L879.702 26.4841L883.582 26.4841Z" fill="#25315E"/>
<path d="M897.348 26.4841L897.348 -0.015625L893.469 -0.015625L893.469 26.4841L897.348 26.4841Z" fill="#25315E"/>
<path d="M911.066 45.9077L911.066 -0.015625L907.235 -0.015625L907.235 45.9077L911.066 45.9077Z" fill="#25315E"/>
</g>
<defs>
<clipPath id="clip0_1747_27715">
<rect width="194" height="940" fill="white" transform="translate(940) rotate(90)"/>
</clipPath>
</defs>
</svg>
