<svg width="74" height="280" viewBox="0 0 74 280" fill="none" xmlns="http://www.w3.org/2000/svg">
<g clip-path="url(#clip0_4201_1618)">
<path d="M66.624 7.90487V27.7319H26.624V7.90487C26.624 3.53875 29.644 0 33.3701 0H59.8695C63.5955 0 66.6155 3.53875 66.6155 7.90487H66.624Z" fill="#557CB0"/>
<path d="M46.6239 280L55.318 262.815H37.9297L46.6239 280Z" fill="#333333"/>
<path d="M46.624 27.7319H26.624V240.466H46.624V27.7319Z" fill="#F08E78"/>
<path d="M46.624 240.476V240.466H26.624L37.9299 262.815H55.3182L66.624 240.476L46.624 240.466V240.476Z" fill="#FED651"/>
<path d="M66.624 27.7319H46.624V240.466H66.624V27.7319Z" fill="#ED6D4F"/>
</g>
<rect x="74" y="132" width="18" height="54" rx="6" transform="rotate(90 74 132)" fill="#557CB0"/>
<circle cx="20" cy="141" r="20" fill="#557CB0"/>
<circle cx="20" cy="141" r="9" fill="#E6E6E6"/>
<circle cx="20" cy="141" r="8.5" stroke="#CCCCCC" stroke-opacity="0.8"/>
<defs>
<clipPath id="clip0_4201_1618">
<rect width="40" height="280" fill="white" transform="translate(26.624)"/>
</clipPath>
</defs>
</svg>
