<svg width="40" height="40" viewBox="0 0 40 40" fill="none" xmlns="http://www.w3.org/2000/svg">
<circle cx="20" cy="20" r="20" fill="#169BD4"/>
<mask id="mask0_2170_98266" style="mask-type:alpha" maskUnits="userSpaceOnUse" x="6" y="6" width="28" height="28">
<rect x="6" y="6" width="28" height="28" fill="#D9D9D9"/>
</mask>
<g mask="url(#mask0_2170_98266)">
<path d="M20.0583 29.0416C17.535 29.0416 15.3875 28.1636 13.6158 26.4077C11.8441 24.6517 10.9583 22.5158 10.9583 20V19.089L9.41465 20.6327C9.25312 20.7942 9.05008 20.8768 8.80553 20.8806C8.561 20.8843 8.35423 20.8017 8.18522 20.6327C8.01617 20.4637 7.93164 20.2587 7.93164 20.0179C7.93164 19.7771 8.01616 19.5722 8.18519 19.4032L11.0951 16.4933C11.306 16.2824 11.552 16.1769 11.8332 16.1769C12.1144 16.1769 12.3605 16.2824 12.5714 16.4933L15.4813 19.4032C15.6428 19.5647 15.7255 19.7678 15.7292 20.0123C15.733 20.2569 15.6503 20.4637 15.4813 20.6327C15.3123 20.8017 15.1074 20.8862 14.8666 20.8862C14.6258 20.8862 14.4209 20.8017 14.2519 20.6327L12.7082 19.089V20C12.7082 22.0267 13.4217 23.7487 14.8486 25.1659C16.2756 26.5831 18.0121 27.2917 20.0583 27.2917C20.3993 27.2917 20.7392 27.2685 21.078 27.2221C21.4168 27.1757 21.7507 27.0965 22.0797 26.9843C22.328 26.9095 22.5625 26.9174 22.7831 27.0079C23.0037 27.0984 23.1694 27.252 23.28 27.4689C23.3907 27.6977 23.3978 27.9255 23.3014 28.1521C23.2049 28.3787 23.0325 28.5293 22.7842 28.6041C22.3445 28.7597 21.895 28.8715 21.4358 28.9395C20.9766 29.0076 20.5174 29.0416 20.0583 29.0416ZM19.9416 12.7083C19.6006 12.7083 19.2607 12.7315 18.9219 12.7778C18.5831 12.8242 18.2492 12.9035 17.9201 13.0157C17.6718 13.0905 17.4344 13.0826 17.2078 12.9921C16.9812 12.9016 16.8126 12.7479 16.7019 12.5311C16.5912 12.3142 16.5822 12.0925 16.675 11.8659C16.7677 11.6393 16.9322 11.4886 17.1685 11.4138C17.6202 11.2582 18.0776 11.1434 18.5405 11.0694C19.0034 10.9954 19.4704 10.9583 19.9416 10.9583C22.4649 10.9583 24.6124 11.8363 26.384 13.5923C28.1557 15.3483 29.0416 17.4842 29.0416 20V20.9109L30.5852 19.3673C30.7467 19.2058 30.9498 19.1231 31.1943 19.1194C31.4389 19.1156 31.6456 19.1983 31.8146 19.3673C31.9837 19.5363 32.0682 19.7412 32.0682 19.982C32.0682 20.2228 31.9837 20.4277 31.8146 20.5968L28.9047 23.5067C28.6938 23.7176 28.4478 23.823 28.1666 23.823C27.8854 23.823 27.6394 23.7176 27.4285 23.5067L24.5185 20.5968C24.357 20.4352 24.2744 20.2322 24.2706 19.9876C24.2669 19.7431 24.3495 19.5363 24.5185 19.3673C24.6876 19.1983 24.8925 19.1138 25.1333 19.1138C25.3741 19.1138 25.579 19.1983 25.748 19.3673L27.2916 20.9109V20C27.2916 17.9733 26.5782 16.2513 25.1512 14.8341C23.7243 13.4169 21.9878 12.7083 19.9416 12.7083Z" fill="white"/>
</g>
</svg>
