<svg width="40" height="40" viewBox="0 0 40 40" fill="none" xmlns="http://www.w3.org/2000/svg">
<circle cx="20" cy="20" r="20" fill="#169BD4"/>
<path d="M18 21L21 24L18 27" stroke="white" stroke-width="2" stroke-linecap="round" stroke-linejoin="round"/>
<path d="M27 23.0021C32 21.5 32.2536 19.379 31.8782 18.2895C31.5028 17.2 30.2751 16.1925 28.3855 15.4234C26.4959 14.6543 24.05 14.1664 21.4272 14.0355C18.8043 13.9046 16.1511 14.138 13.879 14.6994C11.6069 15.2608 9.84285 16.119 8.86054 17.1407C7.87823 18.1624 7.73251 19.2907 8.44598 20.3504C9.15945 21.4102 10.6922 22.3423 12.8066 23.0021C14.921 23.6619 17.4988 24.0125 20.1402 23.9997" stroke="white" stroke-width="2" stroke-linecap="round"/>
</svg>
