<svg width="91" height="156" viewBox="0 0 91 156" fill="none" xmlns="http://www.w3.org/2000/svg">
<rect x="36.376" width="18" height="67" fill="#E6E6E6"/>
<rect x="36.876" y="0.5" width="17" height="66" stroke="#CCCCCC" stroke-opacity="0.8"/>
<rect x="41.3076" y="5" width="8" height="57" fill="#6F716F"/>
<path d="M45.376 143.5C63.8775 143.5 78.876 128.502 78.876 110C78.876 91.4985 63.8775 76.5 45.376 76.5C26.8744 76.5 11.876 91.4985 11.876 110C11.876 128.502 26.8744 143.5 45.376 143.5ZM89.876 110C89.876 134.577 69.9526 154.5 45.376 154.5C20.7993 154.5 0.875977 134.577 0.875977 110C0.875977 85.4233 20.7993 65.5 45.376 65.5C69.9526 65.5 89.876 85.4233 89.876 110Z" fill="#557CB0" stroke="#CCCCCC"/>
<circle cx="45.376" cy="129" r="27" fill="#E6E6E6"/>
<circle cx="45.376" cy="129" r="26.5" stroke="#CCCCCC" stroke-opacity="0.8"/>
<circle cx="45.376" cy="129" r="15" fill="#6F716F"/>
</svg>
