<svg width="283" height="489" viewBox="0 0 283 489" fill="none" xmlns="http://www.w3.org/2000/svg">
<mask id="path-1-inside-1_1747_27895" fill="white">
<path fill-rule="evenodd" clip-rule="evenodd" d="M283 0.714844L0 488.472H283V0.714844ZM211 448C228.673 448 243 433.673 243 416C243 398.327 228.673 384 211 384C193.327 384 179 398.327 179 416C179 433.673 193.327 448 211 448Z"/>
</mask>
<path fill-rule="evenodd" clip-rule="evenodd" d="M283 0.714844L0 488.472H283V0.714844ZM211 448C228.673 448 243 433.673 243 416C243 398.327 228.673 384 211 384C193.327 384 179 398.327 179 416C179 433.673 193.327 448 211 448Z" fill="#DAE5F0" fill-opacity="0.6"/>
<path d="M0 488.472L-2.59486 486.966L-5.20901 491.472H0V488.472ZM283 0.714844H286V-10.4336L280.405 -0.790712L283 0.714844ZM283 488.472V491.472H286V488.472H283ZM2.59486 489.978L285.595 2.2204L280.405 -0.790712L-2.59486 486.966L2.59486 489.978ZM283 485.472H0V491.472H283V485.472ZM280 0.714844V488.472H286V0.714844H280ZM240 416C240 432.016 227.016 445 211 445V451C230.33 451 246 435.33 246 416H240ZM211 387C227.016 387 240 399.984 240 416H246C246 396.67 230.33 381 211 381V387ZM182 416C182 399.984 194.984 387 211 387V381C191.67 381 176 396.67 176 416H182ZM211 445C194.984 445 182 432.016 182 416H176C176 435.33 191.67 451 211 451V445Z" fill="#DAE5F0" mask="url(#path-1-inside-1_1747_27895)"/>
</svg>
