<svg width="58" height="40" viewBox="0 0 58 40" fill="none" xmlns="http://www.w3.org/2000/svg">
<g clip-path="url(#clip0_1530_57639)">
<path fill-rule="evenodd" clip-rule="evenodd" d="M46.7111 18.1858L50.855 16.4484C51.0776 16.613 51.2203 16.8755 51.2203 17.1686V21.0967H51.2125C51.2063 21.0967 51.2012 21.1017 51.2012 21.1079V22.7754C50.5479 22.9963 50.0781 23.6084 50.0781 24.3289C50.0781 24.7687 50.2532 25.1682 50.5382 25.4629H50.5107C50.4982 25.4629 50.4883 25.4727 50.4883 25.4851V28.3616C50.4883 28.4898 50.5918 28.5945 50.7206 28.5982C50.6628 28.9077 50.2978 31.16 51.6519 32.4884C51.8095 32.6431 52.0506 32.679 52.2483 32.5782L53.3762 32.003C53.654 31.8613 53.744 31.5067 53.5588 31.258C52.8773 30.3425 52.7451 28.8467 52.7275 28.5983C52.8584 28.5969 52.9644 28.4913 52.9644 28.3616V25.4851C52.9644 25.4727 52.9545 25.4629 52.942 25.4629H52.9395C53.2245 25.1682 53.3996 24.7687 53.3996 24.3289C53.3996 23.6085 52.93 22.9964 52.2768 22.7755V21.1079C52.2768 21.1017 52.2717 21.0967 52.2654 21.0967H52.2584V17.1757C52.2584 16.7482 52.1316 16.3454 51.9103 16.006L57.355 13.7232H57.3553C58.2151 13.3628 58.2151 12.1585 57.3553 11.798L29.4132 0.0829532C29.1493 -0.0276511 28.8511 -0.0276511 28.587 0.0829532L0.644815 11.798C-0.214938 12.1585 -0.214938 13.3628 0.644815 13.7232L11.291 18.1868V32.7523C11.291 34.0105 11.917 35.1889 12.9671 35.9008C15.3503 37.5167 20.4109 39.9999 29.001 39.9999C37.5912 39.9999 42.6517 37.5167 45.035 35.9008C46.0851 35.1892 46.7111 34.0107 46.7111 32.7523V18.1858ZM35.5 23.866C36.1667 23.4811 36.1667 22.5189 35.5 22.134L26.5 16.9378C25.8333 16.5529 25 17.034 25 17.8038V28.1962C25 28.966 25.8333 29.4471 26.5 29.0622L35.5 23.866Z" fill="white"/>
</g>
<defs>
<clipPath id="clip0_1530_57639">
<rect width="58" height="40" fill="white"/>
</clipPath>
</defs>
</svg>
