<svg width="132" height="125" viewBox="0 0 132 125" fill="none" xmlns="http://www.w3.org/2000/svg">
<g style="mix-blend-mode:multiply">
<path d="M10.0029 114.999C11.7751 114.851 13.4301 113.436 15.0162 112.024C21.3839 106.359 27.816 100.776 34.0782 94.961C54.6794 75.8274 75.771 55.3623 95.84 35.6474C101.948 29.6466 107.897 23.5029 113.968 17.4664C117.967 13.4905 120.559 9.57185 123.093 5.64602C124.385 3.64669 124.199 2.59276 123.152 2.27001C120.638 1.4917 117.225 2.29428 112.164 6.01733C109.239 8.16803 106.457 10.5629 103.841 13.3177C93.1986 24.5183 82.5828 35.736 71.9158 46.9222C65.6639 53.4786 59.3739 60.0193 53.0252 66.5157C43.1248 76.6437 32.2664 87.5992 22.3352 97.7058C19.9004 100.184 17.5477 102.731 15.0631 105.156C11.7693 108.371 10.17 111.014 10.066 113.302C10.041 113.843 10.0234 114.379 10 115L10.0029 114.999Z" fill="#CC0000" fill-opacity="0.7"/>
<path d="M10.1408 115.488C11.108 115.385 12.0142 114.956 12.8543 114.403C13.7223 113.832 14.5577 113.102 15.3485 112.397C17.0486 110.885 18.7545 109.377 20.4611 107.869C25.1404 103.733 29.826 99.592 34.4184 95.3274L34.0782 94.961L34.4185 95.3273C55.0247 76.189 76.1202 55.7201 96.1904 36.0041C99.6586 32.5969 103.083 29.136 106.504 25.6778C109.105 23.049 111.705 20.4219 114.321 17.8209C118.361 13.8042 120.977 9.84582 123.513 5.91721C124.173 4.89614 124.52 4.0254 124.499 3.31491C124.488 2.94386 124.377 2.60796 124.152 2.33468C123.93 2.06557 123.629 1.89397 123.3 1.79229C120.549 0.940825 116.962 1.86742 111.868 5.61455C108.922 7.78073 106.117 10.1949 103.478 12.9734C99.8106 16.8334 96.1464 20.6952 92.4824 24.5568C85.5135 31.9015 78.5449 39.2459 71.5539 46.5772C65.303 53.1326 59.0144 59.6717 52.6676 66.1662C46.6123 72.3608 40.1997 78.8637 33.8592 85.2935C29.8333 89.3761 25.8365 93.4293 21.9786 97.3553C21.0589 98.2912 20.1562 99.2315 19.2561 100.169C17.7568 101.731 16.2648 103.285 14.7138 104.798C11.405 108.028 9.67991 110.788 9.56649 113.279L10.1408 115.488ZM10.1408 115.488L9.46881 115.817L9.50035 114.981C9.5068 114.81 9.51282 114.646 9.51869 114.485C9.53405 114.064 9.54836 113.673 9.56648 113.279L10.1408 115.488Z" stroke="#CC0000" stroke-opacity="0.6"/>
</g>
</svg>
